<svg width="33" height="48" viewBox="0 0 33 48" fill="none" xmlns="http://www.w3.org/2000/svg">
<g id="Smartphone Phone Smart Mobile 2">
<path id="Path" fill-rule="evenodd" clip-rule="evenodd" d="M16.925 6.40005H15.325C14.845 6.40005 14.525 6.08005 14.525 5.60005C14.525 5.12005 14.845 4.80005 15.325 4.80005H16.925C17.405 4.80005 17.725 5.12005 17.725 5.60005C17.725 6.08005 17.405 6.40005 16.925 6.40005Z" fill="black"/>
<path id="Path_2" fill-rule="evenodd" clip-rule="evenodd" d="M27.0908 5.03436C27.4032 5.34678 27.4032 5.85332 27.0908 6.16574C26.7784 6.47815 26.2718 6.47815 25.9594 6.16574C25.647 5.85332 25.647 5.34678 25.9594 5.03436C26.2718 4.72194 26.7784 4.72194 27.0908 5.03436Z" fill="black"/>
<path id="Shape" fill-rule="evenodd" clip-rule="evenodd" d="M28.925 0H3.325C1.565 0 0.125 1.44 0.125 3.2V44.8C0.125 46.56 1.565 48 3.325 48H28.925C30.685 48 32.125 46.56 32.125 44.8V3.2C32.125 1.44 30.685 0 28.925 0ZM18.525 44.8H13.725C13.245 44.8 12.925 44.48 12.925 44C12.925 43.52 13.245 43.2 13.725 43.2H18.525C19.005 43.2 19.325 43.52 19.325 44C19.325 44.48 19.005 44.8 18.525 44.8ZM3.325 40H28.925V3.2H3.325V40Z" fill="black"/>
</g>
</svg>
