<svg width="30" height="30" viewBox="0 0 30 30" fill="none" xmlns="http://www.w3.org/2000/svg">
<g id="rocket-pointing-to-upper-left-direction">
<path id="Combined Shape" opacity="0.194871" fill-rule="evenodd" clip-rule="evenodd" d="M3.9554 21.0553L0.0817642 23.7675C0.0298195 23.8036 5.72205e-05 23.8542 0 23.9063V25.8057C0 25.8842 0.0654678 25.9549 0.165565 25.9848C0.19912 25.995 0.23488 26 0.269453 26C0.339279 26 0.408537 25.9806 0.460482 25.9436L5.92 22.0538C5.97845 22.0122 6.00714 21.9535 5.99848 21.8949C5.98983 21.8361 5.94439 21.7837 5.87462 21.7518L4.28868 21.0304C4.18428 20.9822 4.0452 20.9919 3.9554 21.0553ZM4.58126 23.1316C4.59149 23.1216 4.60264 23.1091 4.61451 23.0958C4.6533 23.0523 4.69986 23 4.74777 23H4.75373C4.8053 23 4.85419 23.059 4.89334 23.1062C4.90345 23.1184 4.9129 23.1298 4.92159 23.1392L5.94403 24.3066C6.02219 24.391 6.01805 24.517 5.93436 24.5967L1.37744 28.9356C1.33425 28.9768 1.27485 29 1.21324 29H0.4599H0.22995C0.102976 29 0 28.904 0 28.7857V27.7598C0 27.7049 0.0230389 27.6192 0.0634384 27.5793L4.58126 23.1316ZM8.95613 25.0528C9.0156 25.008 9.10195 24.9901 9.18341 25.0053C9.26486 25.0207 9.3302 25.0666 9.35657 25.1272L9.9872 26.5628C10.0174 26.6316 9.99307 26.7074 9.92477 26.7575L6.93391 28.948C6.88811 28.9813 6.82807 29 6.76513 29H4.24398C4.14452 29 4.05526 28.9536 4.01767 28.8834C3.98058 28.8127 4.00303 28.732 4.07423 28.679L8.95613 25.0528Z" fill="black"/>
<path id="Combined Shape_2" fill-rule="evenodd" clip-rule="evenodd" d="M3.64313 19.4119L0.0753098 22.8379C0.0274658 22.8835 5.14984e-05 22.9474 0 23.0132V25.4124C0 25.5116 0.0602989 25.601 0.152494 25.6387C0.183399 25.6516 0.216337 25.6579 0.24818 25.6579C0.312492 25.6579 0.376284 25.6334 0.424128 25.5867L5.45263 20.6732C5.50647 20.6207 5.53289 20.5466 5.52492 20.4725C5.51694 20.3982 5.47509 20.3321 5.41083 20.2917L3.9501 19.3805C3.85394 19.3196 3.72584 19.3319 3.64313 19.4119ZM4.85737 22.2187L4.85738 22.2187C4.89821 22.1671 4.94722 22.1053 4.99765 22.1053H5.00393C5.05821 22.1053 5.10967 22.1751 5.15088 22.231C5.16152 22.2455 5.17148 22.259 5.18062 22.2702L6.25688 23.6526C6.33915 23.7525 6.33479 23.9017 6.2467 23.9961L1.44994 29.1343C1.40447 29.183 1.34195 29.2105 1.2771 29.2105H0.484106H0.242054C0.108395 29.2105 0 29.0968 0 28.9568V27.7419C0 27.6769 0.0242519 27.5754 0.0667801 27.5282L4.82238 22.2611C4.83315 22.2493 4.84488 22.2345 4.85737 22.2187ZM8.44354 24.1467C8.50224 24.0892 8.58745 24.0662 8.66784 24.0858C8.74822 24.1055 8.8127 24.1644 8.83872 24.2421L9.46106 26.0838C9.4909 26.1721 9.46684 26.2694 9.39945 26.3336L6.44794 29.1438C6.40273 29.1866 6.34349 29.2105 6.28138 29.2105H3.7934C3.69525 29.2105 3.60716 29.1511 3.57006 29.0609C3.53347 28.9703 3.55562 28.8667 3.62589 28.7987L8.44354 24.1467Z" fill="white"/>
</g>
</svg>
