<svg width="48" height="48" viewBox="0 0 48 48" fill="none" xmlns="http://www.w3.org/2000/svg">
<path id="Shape" fill-rule="evenodd" clip-rule="evenodd" d="M46.62 29.095C46.9672 27.5315 47.1478 25.9123 47.1478 24.2486C47.1478 11.7846 36.9004 1.67713 24.2541 1.67713C22.922 1.67713 21.6153 1.7912 20.3397 2.0082C18.2936 0.736773 15.8721 -0.000488281 13.2785 -0.000488281C5.94361 -0.000488281 0 5.85867 0 13.0922C0 15.5071 0.666041 17.7662 1.82314 19.7137C1.52117 21.1771 1.3603 22.6961 1.3603 24.2486C1.3603 36.7181 11.6105 46.8228 24.254 46.8228C25.6877 46.8228 27.0875 46.692 28.4478 46.4444C30.3189 47.4349 32.4525 47.9996 34.7244 47.9996C42.0565 47.9996 48 42.1377 48 34.9097C48 32.8203 47.5033 30.8478 46.62 29.0951L46.62 29.095ZM35.9972 35.0377C34.9389 36.5177 33.3754 37.6862 31.3434 38.5153C29.3368 39.3388 26.9323 39.7589 24.1919 39.7589C20.9041 39.7589 18.1468 39.1886 15.9934 38.0618C14.4553 37.2439 13.1882 36.1366 12.2258 34.7622C11.2521 33.3823 10.7611 32.0107 10.7611 30.6836C10.7611 29.8601 11.0828 29.1423 11.715 28.5553C12.3415 27.971 13.1458 27.6789 14.1054 27.6789C14.89 27.6789 15.5701 27.9098 16.1204 28.3689C16.6482 28.8112 17.0997 29.465 17.4638 30.3025C17.8702 31.2206 18.3105 31.994 18.7761 32.5977C19.2277 33.1875 19.874 33.68 20.6981 34.0667C21.5278 34.4506 22.6482 34.6509 24.0226 34.6509C25.9163 34.6509 27.4685 34.2503 28.6341 33.4657C29.7771 32.7006 30.3302 31.777 30.3302 30.6474C30.3302 29.7599 30.0396 29.0588 29.4469 28.508C28.8204 27.9349 27.9991 27.4897 27.0029 27.1781C25.9615 26.861 24.5504 26.5132 22.8034 26.1515C20.4243 25.6508 18.4064 25.0582 16.8034 24.3821C15.1609 23.6949 13.8373 22.7407 12.8693 21.5471C11.8871 20.3313 11.3876 18.8095 11.3876 17.0206C11.3876 15.3179 11.9097 13.7794 12.9426 12.4551C13.9643 11.1392 15.46 10.1098 17.3876 9.41148C19.2869 8.71873 21.5447 8.36817 24.1045 8.36817C26.1477 8.36817 27.9455 8.60187 29.4469 9.06371C30.9568 9.52554 32.2268 10.1487 33.2258 10.9194C34.2334 11.6984 34.9841 12.5247 35.4525 13.3871C35.9267 14.2579 36.1694 15.1232 36.1694 15.9606C36.1694 16.7674 35.8533 17.5019 35.2296 18.139C34.6031 18.7845 33.81 19.11 32.8787 19.11C32.032 19.11 31.366 18.9041 30.9088 18.5035C30.4798 18.1279 30.0339 17.5436 29.54 16.709C28.9699 15.6407 28.2785 14.7977 27.4855 14.2023C26.715 13.6236 25.4309 13.3343 23.6614 13.3343C22.0245 13.3343 20.6868 13.657 19.6962 14.2997C18.7423 14.9145 18.2766 15.624 18.2766 16.4642C18.2766 16.9761 18.4262 17.4073 18.7366 17.7745C19.0584 18.1696 19.5184 18.509 20.0998 18.7984C20.7009 19.0961 21.3218 19.3353 21.9427 19.5022C22.5777 19.6775 23.6444 19.9363 25.1092 20.2701C26.9634 20.6596 28.6651 21.102 30.1694 21.5777C31.6962 22.0562 33.0114 22.6461 34.0894 23.3388C35.1844 24.0427 36.0509 24.9441 36.6689 26.0236C37.287 27.1114 37.6003 28.4468 37.6003 30.002C37.6003 31.8605 37.0584 33.5548 35.9972 35.0377L35.9972 35.0377Z" fill="black"/>
</svg>
