<svg width="572" height="359" viewBox="0 0 572 359" fill="none" xmlns="http://www.w3.org/2000/svg">
<g id="undraw_winners_2yls">
<path id="Path" opacity="0.1" fill-rule="evenodd" clip-rule="evenodd" d="M378.234 258.603C390.408 257.908 405.511 249.646 417.255 245.992C431.154 241.678 445.109 237.528 459.118 233.541C507.889 219.655 557.183 207.823 607 198.045C611.649 197.13 616.305 196.237 620.969 195.366C613.704 179.659 602.449 166.133 588.327 156.139C588.688 152.7 588.872 149.245 588.877 145.788C588.877 91.1438 545.235 46.8455 491.38 46.8455C474.8 46.8279 458.498 51.1101 444.064 59.2746C405.946 34.185 356.195 19 301.762 19C224.415 19 156.514 49.6621 118.038 95.8343L298.865 126.403L409.769 145.143C283.337 148.918 156.514 152.672 30.445 143.809C-3.87502 177.037 -9.90307 229.92 16.0573 270.029C16.0573 272.007 16.1399 273.97 16.2886 275.915C19.5 276.836 22.6012 277.729 25.3828 278.313C70.0406 287.753 114.985 295.653 160.215 302.014C126.884 322.578 86.2937 325.488 47.8457 334.197C66.4638 349.575 91.747 359 119.608 359H534.45C579.37 359 615.78 327.71 615.78 289.105C622.521 277.982 627.013 265.643 629 252.788C545.88 260.819 461.724 253.846 378.234 258.603Z" fill="#009688"/>
<path id="Path_2" opacity="0.1" fill-rule="evenodd" clip-rule="evenodd" d="M629 236.365C629.09 204.082 613.502 173.774 587.214 155.121C587.572 151.684 587.755 148.232 587.763 144.777C587.763 90.1399 544.18 45.864 490.446 45.864C473.895 45.8462 457.622 50.1258 443.212 58.2859C405.164 33.1885 355.5 18 301.167 18C212.79 18 136.717 58.2033 102.981 115.855C101.106 115.744 99.2198 115.684 97.3175 115.684C43.5785 115.684 0.000190024 159.976 0.000190024 214.613C-0.0374765 233.912 5.5253 252.805 16.0108 268.991C16.0108 318.149 62.2997 358 119.376 358H533.464C578.296 358 614.638 326.708 614.638 288.109C624.068 272.507 629.036 254.607 629 236.365Z" fill="#009688"/>
<path id="Shape" fill-rule="evenodd" clip-rule="evenodd" d="M511.655 175.321C512.634 175.492 513.557 175.899 514.346 176.507C515.928 177.882 516.06 180.265 515.983 182.388C515.95 183.247 515.845 184.195 515.184 184.749C514.607 185.119 513.923 185.282 513.243 185.209H513.116C512.898 185.208 512.68 185.205 512.462 185.203C510.703 185.184 508.94 185.166 507.282 185.713C506.768 185.886 506.27 186.11 505.773 186.333C505.06 186.652 504.349 186.971 503.599 187.138C503.007 189.126 503.125 191.278 503.243 193.441C503.318 194.805 503.392 196.172 503.29 197.507C503.04 199.693 502.548 201.844 501.823 203.92L501.807 203.973C501.173 206.023 500.537 208.077 499.728 210.066C499.432 210.805 499.112 211.527 498.793 212.247C498.375 213.189 497.959 214.127 497.6 215.098C497.378 215.691 497.175 216.3 496.972 216.911C496.248 219.087 495.514 221.291 493.9 222.858C492.962 227.402 491.771 232.357 488.06 235.128C484.846 237.528 480.319 237.589 476.575 236.159C472.831 234.729 469.748 231.941 467.052 228.954C466.056 227.85 465.099 226.705 464.142 225.561C462.509 223.608 460.876 221.656 459.051 219.909C457.394 218.344 455.635 216.893 453.785 215.564C451.918 214.178 449.997 212.885 448.023 211.684C446.816 210.849 445.461 210.255 444.031 209.933C442.858 209.707 441.643 209.945 440.64 210.598C440.412 210.754 440.206 210.941 440.028 211.152C439.538 211.845 439.166 212.615 438.925 213.43C437.196 217.993 433.27 220.889 429.322 223.802C428.009 224.771 426.693 225.741 425.455 226.776L420.922 230.561C420.304 231.077 419.621 231.83 419.924 232.584C420.133 232.963 420.469 233.254 420.872 233.404C421.782 233.858 422.746 234.217 423.708 234.576C425.533 235.257 427.351 235.935 428.774 237.245C428.917 237.377 429.058 237.516 429.201 237.655C429.851 238.294 430.522 238.952 431.404 239.002C431.972 238.967 432.531 238.839 433.058 238.625C434.741 238.167 436.54 238.53 437.916 239.606C438.302 239.985 438.75 240.294 439.24 240.521C439.649 240.63 440.077 240.656 440.497 240.598C440.581 240.592 440.666 240.586 440.751 240.58C441.843 240.499 442.947 240.417 443.971 240.936C444.387 241.148 444.763 241.453 445.135 241.755C445.749 242.253 446.354 242.743 447.119 242.799C447.416 242.821 447.747 242.783 448.072 242.746C448.404 242.708 448.731 242.671 449.01 242.699C449.331 242.709 449.626 242.874 449.804 243.142C449.933 243.449 450.02 243.771 450.063 244.101C450.34 244.722 450.757 245.268 451.282 245.697L451.283 245.697C451.52 245.736 451.757 245.775 451.988 245.825C452.923 246.03 453.843 246.295 454.745 246.617H454.794C455.892 247.016 457.066 247.648 457.414 248.757C457.565 249.383 457.542 250.038 457.347 250.652C456.869 252.506 455.838 254.115 454.804 255.729C454.04 256.922 453.273 258.119 452.727 259.42C451.884 261.415 451.578 263.605 451.273 265.784C450.877 268.61 450.484 271.417 448.928 273.758C448.04 275.011 446.967 276.121 445.746 277.05C445.069 277.63 444.329 278.132 443.54 278.546C442.723 279 441.763 279.119 440.861 278.879C439.697 278.48 438.997 277.216 438.881 275.991C438.84 275.59 438.84 275.185 438.881 274.783C438.997 273.956 439.181 273.141 439.432 272.345C440.09 270.091 440.75 267.839 441.412 265.589C441.824 264.365 442.091 263.096 442.206 261.809C442.216 261.491 442.194 261.174 442.14 260.861C441.911 260.668 441.723 260.43 441.588 260.163C441.465 259.729 441.28 259.317 441.037 258.938C440.6 258.452 439.895 258.459 439.194 258.467C438.473 258.475 437.757 258.483 437.343 257.951C437.092 257.625 437.066 257.221 437.04 256.806C437.013 256.38 436.985 255.944 436.714 255.568C436.29 254.979 435.501 254.979 434.741 254.98C434.544 254.98 434.348 254.98 434.161 254.969C433.469 254.933 432.81 254.708 432.151 254.482C431.806 254.364 431.462 254.246 431.112 254.155C429.988 253.86 428.824 253.841 427.66 253.822C427.116 253.813 426.573 253.804 426.033 253.767C424.627 253.642 423.23 253.42 421.854 253.102L414.84 251.655L414.692 251.625C410.275 250.721 405.844 249.813 401.64 248.169C399.985 247.548 398.331 246.784 397.228 245.448C396.303 244.277 395.709 242.878 395.508 241.396C394.943 238.02 396.416 234.923 397.911 231.78C399.042 229.402 400.186 226.998 400.471 224.426C400.735 222.248 401.551 220.192 402.389 218.169C403.904 214.551 405.396 210.936 406.867 207.323C407.116 206.651 407.44 206.009 407.832 205.41C408.466 204.637 409.182 203.935 409.966 203.315C412.056 201.403 413.554 198.927 414.283 196.183C414.337 195.878 414.464 195.591 414.653 195.346C414.846 195.178 415.062 195.036 415.292 194.924C416.105 194.393 416.45 193.371 416.125 192.453C416.832 192.394 417.39 191.823 417.437 191.111C417.397 190.809 417.416 190.503 417.492 190.208C417.554 190.038 417.703 189.919 417.855 189.797C417.961 189.712 418.069 189.626 418.148 189.521C418.426 189.154 418.373 188.659 418.322 188.186C418.316 188.122 418.309 188.059 418.303 187.997C418.27 187.667 418.27 187.334 418.303 187.005C418.348 186.578 418.446 186.159 418.595 185.758C417.798 186.154 417.034 186.615 416.312 187.138C415.875 184.477 415.432 181.817 414.983 179.157V178.974C414.44 178.825 413.887 178.712 413.329 178.636C412.198 178.552 411.064 178.742 410.021 179.19C409.592 179.352 409.173 179.537 408.764 179.744C408.304 179.98 407.845 180.234 407.385 180.489C407.293 180.54 407.201 180.591 407.109 180.642C406.291 181.124 405.44 181.549 404.562 181.911C404.308 182.011 404.049 182.094 403.79 182.172L403.674 182.205C403.459 182.271 403.244 182.321 403.029 182.371L402.853 182.41C402.621 182.46 402.389 182.499 402.158 182.532H402.075C402.043 182.536 402.011 182.54 401.978 182.545C401.751 182.574 401.525 182.604 401.298 182.604H401.099H400.548H400.289C400.209 182.602 400.128 182.595 400.048 182.588C399.945 182.579 399.842 182.571 399.737 182.571H399.517C399.263 182.545 399.015 182.512 398.772 182.471L398.568 182.432L398.017 182.316L397.89 182.288L397.752 182.244C397.548 182.194 397.344 182.133 397.146 182.066L396.969 182.011C396.716 181.922 396.462 181.822 396.214 181.712L396.07 181.651C395.855 181.551 395.646 181.446 395.436 181.335L395.293 181.257C395.043 181.124 394.8 180.98 394.565 180.825C394.335 180.674 394.119 180.501 393.92 180.309C393.594 180.026 393.363 179.649 393.258 179.229C393.23 179.109 393.219 178.986 393.225 178.863C393.298 178.487 393.398 178.116 393.523 177.754V177.727C393.591 177.371 393.556 177.004 393.52 176.636C393.484 176.257 393.448 175.878 393.523 175.51C393.642 174.94 394.006 174.481 394.374 174.018C394.618 173.71 394.863 173.4 395.039 173.055C395.064 173.015 395.086 172.974 395.106 172.933C395.329 172.436 395.388 171.892 395.447 171.347C395.498 170.87 395.55 170.393 395.712 169.945C396.142 168.759 397.261 168 398.309 167.313C398.53 167.169 398.772 167.03 399.015 166.892L399.842 166.42C399.809 166.293 399.809 166.16 399.809 166.033C399.809 165.077 400.284 164.215 400.747 163.374C400.802 163.274 400.857 163.173 400.912 163.073C402.321 160.433 402.975 157.536 403.634 154.618C403.823 153.78 404.012 152.94 404.22 152.105L404.258 151.948C404.863 149.439 405.474 146.908 405.323 144.346C405.283 143.636 405.181 142.918 405.078 142.197C404.985 141.538 404.891 140.876 404.843 140.217C404.789 139.441 404.798 138.661 404.808 137.883C404.816 137.161 404.825 136.44 404.783 135.727C404.728 134.82 404.411 133.973 404.091 133.119C403.889 132.58 403.686 132.038 403.547 131.476C403.525 131.381 403.507 131.288 403.489 131.194C403.481 131.151 403.473 131.109 403.465 131.066C403.26 131.094 403.052 131.094 402.847 131.066C402.219 130.906 401.627 130.626 401.105 130.24L396.495 127.303C395.636 126.783 394.809 126.212 394.019 125.591C392.81 124.562 391.713 123.407 390.749 122.143C389.858 121.029 389 119.887 388.143 118.746C386.424 116.456 384.706 114.168 382.716 112.112C382.369 111.739 382.005 111.377 381.638 111.014C381.176 110.556 380.712 110.095 380.278 109.607C379.208 108.347 378.224 107.016 377.334 105.622C376.474 104.336 375.58 102.912 375.729 101.382C375.768 100.919 375.909 100.476 376.05 100.031C376.173 99.6443 376.296 99.2566 376.352 98.8546C376.474 97.99 376.148 96.9425 375.321 96.7097C375.224 96.685 375.124 96.6683 375.024 96.6598C374.86 96.6424 374.699 96.6071 374.544 96.5545C373.777 96.2331 373.893 95.0526 374.445 94.4097C374.704 94.1067 375.023 93.8677 375.34 93.6301C375.695 93.3635 376.049 93.0986 376.314 92.747C376.547 92.3392 376.809 91.9484 377.097 91.5775C377.21 91.469 377.336 91.3742 377.472 91.2949C377.739 90.2906 378.129 89.2123 378.379 88.522C378.464 88.2867 378.532 88.0964 378.575 87.9695C379.037 86.5916 379.562 85.2428 380.087 83.8957C380.32 83.2977 380.553 82.7 380.78 82.1003C380.927 81.7156 381.1 81.3007 381.282 80.8674C381.918 79.3463 382.649 77.5978 382.649 76.1312C382.871 75.0935 383.026 74.0359 383.181 72.977C383.391 71.5361 383.602 70.0927 383.984 68.6935C384.451 67.1061 385.029 65.554 385.715 64.049L388.081 58.2685C388.303 57.5934 388.699 56.9893 389.228 56.5171C389.793 56.1617 390.452 55.9842 391.119 56.0072C393.495 55.9185 395.993 56.6446 397.614 58.4236C399.235 60.2027 399.748 63.057 398.458 65.0744C397.593 66.4318 396.154 67.1833 394.702 67.9418C393.564 68.5367 392.417 69.1358 391.532 70.0347C390.248 71.3371 389.625 73.155 389.244 74.9507C388.567 78.1009 388.5 81.332 388.433 84.5654C388.401 86.1218 388.368 87.6788 388.268 89.2276C388.241 89.6433 388.191 90.0811 388.119 90.5079C388.665 90.6298 389.299 90.8349 389.465 91.3891C389.53 91.653 389.53 91.9289 389.465 92.1927C389.222 93.2856 389.082 94.3989 389.046 95.5181C389.045 95.7533 389.058 95.9883 389.084 96.222C389.343 98.5774 390.86 100.567 392.337 102.407C394.091 104.596 395.872 106.769 397.658 108.936C398.625 110.192 399.704 111.355 400.884 112.411C401.243 112.712 401.638 112.996 402.037 113.283C402.791 113.825 403.56 114.377 404.126 115.077C404.498 115.086 404.861 114.973 405.163 114.755C405.545 114.443 405.97 114.189 406.426 114.002C406.951 113.858 407.481 114.001 408.015 114.144C408.306 114.222 408.597 114.301 408.89 114.334C410.09 114.475 411.185 113.813 412.245 113.172C412.433 113.058 412.62 112.945 412.805 112.838C414.665 111.772 416.737 111.136 418.871 110.976C419.974 110.898 421.203 110.998 421.981 111.785C421.672 112.167 421.369 112.55 421.071 112.937C421.364 112.731 421.632 112.491 421.87 112.223C422.394 111.541 422.35 110.593 422.273 109.734C421.992 107.568 421.896 105.382 421.986 103.2C421.992 103.143 422.001 103.087 422.01 103.03C422.026 102.932 422.041 102.833 422.041 102.734C420.631 99.6091 420.745 96.0029 422.35 92.9742L422.119 92.9188L421.462 92.7691C421.245 92.7142 421.032 92.6457 420.823 92.5641C420.312 92.3487 419.858 92.0188 419.494 91.5997C419.11 91.1621 418.829 90.643 418.672 90.0811C418.629 89.9342 418.598 89.7841 418.579 89.6322V89.5657C418.545 89.4327 418.545 89.2941 418.545 89.1556C418.541 88.8444 418.572 88.5338 418.639 88.23C418.746 87.6867 418.985 87.1784 419.334 86.7502C419.584 86.4491 419.883 86.2096 420.181 85.9709C420.551 85.6735 420.92 85.3776 421.192 84.9656C421.61 84.3372 421.729 83.5521 421.848 82.763C421.909 82.3551 421.971 81.9461 422.074 81.5571C422.44 80.09 423.484 78.8884 424.881 78.326C426.243 77.863 427.747 78.1816 428.807 79.1573C429.096 79.4165 429.35 79.7161 429.604 80.0165C429.839 80.2941 430.075 80.5724 430.34 80.82C430.885 81.3458 431.552 81.7267 432.281 81.9284C432.638 81.3373 433.102 80.8185 433.648 80.3988L433.726 80.3378C434.707 79.5944 435.934 79.2554 437.155 79.3901C439.225 79.7591 440.906 81.2788 441.489 83.3085C441.573 83.5707 441.64 83.8412 441.707 84.1109C441.852 84.6963 441.996 85.2781 442.305 85.7637C442.74 86.4257 443.394 86.8016 444.055 87.1814C444.452 87.409 444.85 87.638 445.206 87.9307C446.35 89.001 447.018 90.4891 447.058 92.0597V92.6583C447.038 93.8496 446.852 95.0322 446.507 96.1721C446.48 96.2591 446.449 96.3555 446.418 96.4501C446.387 96.5482 446.356 96.6445 446.33 96.7263C446.281 96.8869 446.226 97.0475 446.171 97.2081L446.171 97.2085C446.006 97.689 445.871 98.1796 445.768 98.6772C445.71 99.0173 445.679 99.362 445.649 99.7065C445.621 100.013 445.594 100.32 445.548 100.623C445.456 101.265 445.27 101.891 444.996 102.479C444.818 102.87 444.6 103.242 444.345 103.588C444.22 103.754 444.088 103.915 443.948 104.07C443.673 104.368 443.366 104.636 443.033 104.868C442.84 105.026 442.599 105.114 442.349 105.117C441.974 105.073 441.721 104.685 441.561 104.28L441.495 104.109V104.075C440.126 106.32 438.007 108.002 435.518 108.82C435.512 108.877 435.504 108.937 435.496 108.999C435.479 109.121 435.462 109.249 435.462 109.374C435.355 110.132 435.394 110.903 435.578 111.646C435.706 111.452 435.846 111.267 435.997 111.092C437.006 109.9 438.848 109.274 440.149 110.122C440.957 110.646 441.342 111.552 441.73 112.468C442.053 113.227 442.378 113.993 442.95 114.556C443.959 115.554 445.477 115.688 446.903 115.814C447.005 115.823 447.106 115.832 447.207 115.842C449.904 116.093 452.552 116.722 455.076 117.709C455.568 117.865 456.016 118.136 456.382 118.502C456.811 118.977 456.911 119.632 457.013 120.296C457.075 120.701 457.138 121.11 457.276 121.484C457.515 122.131 457.969 122.657 458.423 123.183C458.859 123.689 459.296 124.195 459.542 124.809C459.756 125.391 459.824 126.018 459.741 126.632C459.789 126.802 459.833 126.976 459.876 127.149C459.903 127.253 459.929 127.356 459.956 127.458C460.21 128.436 460.688 129.341 461.351 130.102C461.906 130.593 462.399 131.151 462.817 131.765C463.114 132.359 463.161 133.018 463.208 133.68C463.238 134.112 463.269 134.545 463.369 134.963C463.489 135.462 463.708 135.934 463.927 136.404C464.211 137.014 464.494 137.622 464.56 138.288C464.563 138.626 464.595 138.964 464.653 139.297C464.833 139.983 465.432 140.408 466.034 140.835C466.613 141.245 467.194 141.657 467.41 142.306C467.493 142.575 467.521 142.857 467.493 143.137C467.719 143.034 467.953 142.951 468.193 142.888C468.19 142.915 468.186 142.941 468.182 142.968C468.152 143.181 468.122 143.397 468.122 143.608C468.353 143.395 468.593 143.198 468.831 143.003C468.933 142.918 469.035 142.834 469.136 142.749C472.057 140.294 474.478 137.294 476.266 133.915C477.088 132.498 477.649 130.943 477.92 129.326C478.004 128.629 478.011 127.926 478.018 127.225C478.023 126.682 478.028 126.14 478.069 125.602C478.159 124.51 478.393 123.438 478.627 122.366C478.851 121.339 479.075 120.311 479.172 119.267C479.222 118.725 479.238 118.18 479.254 117.635C479.281 116.695 479.308 115.755 479.514 114.833C479.839 113.375 480.727 111.923 482.138 111.508C483.144 111.264 484.205 111.435 485.083 111.984C485.949 112.529 486.739 113.186 487.432 113.941C488.121 114.622 488.843 115.376 488.998 116.335C489.06 116.93 489.002 117.531 488.827 118.103C487.84 122.293 486.401 126.363 484.537 130.24C484.293 130.743 484.043 131.243 483.792 131.742C483.3 132.722 482.808 133.701 482.37 134.708C481.747 136.074 481.249 137.488 480.754 138.893L480.716 139.003C479.646 142.051 478.58 145.097 477.518 148.142C477.251 149.011 476.88 149.845 476.415 150.625C475.984 151.257 475.493 151.846 474.948 152.382C474.729 152.595 474.544 152.794 474.374 152.977C474.251 153.108 474.137 153.231 474.022 153.346C474.332 153.479 474.648 153.596 474.97 153.695C474.772 154.664 473.991 155.312 473.213 155.959C472.931 156.194 472.649 156.428 472.395 156.677C471.839 157.222 471.395 157.878 470.952 158.532C470.323 159.46 469.699 160.381 468.767 160.967C467.008 162.081 464.731 161.649 462.702 161.177C462.519 161.159 462.349 161.072 462.227 160.934C462.187 160.865 462.157 160.79 462.139 160.712L462.106 160.579C461.647 159.963 461.186 159.35 460.724 158.735C460.525 158.471 460.326 158.206 460.127 157.941C459.898 157.593 459.606 157.292 459.266 157.054C459.119 156.962 458.96 156.896 458.8 156.83C458.66 156.771 458.521 156.713 458.39 156.638C457.61 156.188 457.283 155.262 456.981 154.407C456.967 154.368 456.953 154.328 456.939 154.288C456.066 151.829 454.759 149.548 453.08 147.555C452.457 146.888 451.903 146.16 451.425 145.382C450.935 145.587 450.383 145.587 449.893 145.382C449.753 146.405 449.611 147.433 449.468 148.464C449.344 149.115 449.344 149.785 449.468 150.437C449.599 151.1 450.096 151.63 450.747 151.8C450.817 152.204 451.189 152.429 451.549 152.647C451.614 152.686 451.678 152.725 451.74 152.764C452.991 153.646 453.303 155.376 452.44 156.644C452.326 156.799 452.194 156.944 452.063 157.088C451.793 157.385 451.526 157.679 451.414 158.052C451.166 158.866 451.762 159.714 452.473 160.163C452.846 160.399 453.258 160.566 453.669 160.733C454.042 160.884 454.416 161.036 454.761 161.238C456.272 162.12 457.083 163.866 457.601 165.528C457.648 165.68 457.694 165.833 457.74 165.987C458.078 167.114 458.426 168.272 459.255 169.086C459.417 169.241 459.593 169.38 459.768 169.519C459.989 169.693 460.209 169.866 460.402 170.073C461.004 170.786 461.352 171.682 461.389 172.617C461.537 173.775 461.284 174.949 460.672 175.942C460.184 176.608 459.538 177.139 458.792 177.488C459.476 177.948 460.176 178.392 460.893 178.802C461.45 179.123 462.089 179.55 462.089 180.199C462.089 180.448 461.982 180.686 461.797 180.853C461.885 180.909 461.97 180.97 462.051 181.035C462.476 181.367 462.824 181.786 463.071 182.266C463.275 182.854 463.526 183.425 463.821 183.973C464.12 184.384 464.545 184.635 464.98 184.891C465.402 185.141 465.833 185.395 466.17 185.807C466.551 186.275 466.72 186.863 466.89 187.457C467.025 187.927 467.161 188.401 467.405 188.822C467.755 189.439 468.31 189.906 468.863 190.371C469.521 190.925 470.176 191.477 470.476 192.275C470.574 192.551 470.622 192.843 470.67 193.136C470.702 193.339 470.735 193.541 470.785 193.738C471.082 194.84 471.827 195.734 472.554 196.606C472.625 196.69 472.695 196.774 472.765 196.859C475.65 200.337 477.5 204.563 478.102 209.052C478.29 206.231 480.17 203.737 482.513 202.185C482.561 202.151 482.609 202.117 482.658 202.083C483.254 201.665 483.89 201.219 484.008 200.522C484.091 200.021 483.88 199.551 483.667 199.078C483.473 198.646 483.278 198.212 483.307 197.751C483.373 197.275 483.563 196.826 483.859 196.449C484.909 194.914 486.063 193.453 487.31 192.076C487.989 191.327 488.75 190.391 488.468 189.421C488.338 188.974 488.011 188.637 487.681 188.297C487.467 188.077 487.253 187.856 487.09 187.603C486.597 186.817 486.619 185.812 487.145 185.048C487.282 184.861 487.447 184.693 487.612 184.525C487.912 184.219 488.21 183.915 488.331 183.507C488.443 183.122 488.365 182.719 488.287 182.314C488.216 181.944 488.144 181.572 488.215 181.207C488.217 181.176 488.217 181.144 488.215 181.113C488.121 181.002 488.043 180.879 487.983 180.747C487.79 180.137 487.628 179.517 487.498 178.891C487.405 178.611 487.293 178.339 487.162 178.076C486.83 177.513 486.62 176.886 486.544 176.236C486.546 175.59 486.768 174.964 487.173 174.462C488.079 173.373 489.382 172.694 490.79 172.578C492.179 172.469 493.577 172.544 494.947 172.8L508.523 174.767C508.69 174.794 508.857 174.82 509.025 174.846C509.906 174.983 510.788 175.121 511.655 175.321ZM434.453 81.9672C433.997 82.0806 433.526 82.1144 433.058 82.067L434.453 81.9672Z" fill="url(#paint0_linear)"/>
<path id="Path_3" fill-rule="evenodd" clip-rule="evenodd" d="M437.305 116.065C436.642 116.633 435.864 117.049 435.025 117.286L431.139 118.689C429.029 119.451 426.826 120.219 424.6 119.942C423.356 119.788 418.023 118.998 417.218 118.02C415.99 116.507 420.292 114.281 421.761 113.005C422.094 112.763 422.403 112.489 422.682 112.187C423.23 111.513 423.159 110.569 423.082 109.718C422.803 107.563 422.708 105.388 422.797 103.216C422.84 102.699 422.913 102.184 423.016 101.675C423.565 99.1341 425.91 100.062 427.763 100.736C429.993 101.466 432.149 102.408 434.203 103.548C434.829 103.873 435.372 104.338 435.793 104.907C436.604 106.144 436.28 107.768 436.149 109.326C436.034 110.535 436.039 111.695 436.79 112.574C437.168 112.909 437.515 113.279 437.826 113.678C438.186 114.503 437.975 115.468 437.305 116.065Z" fill="#BE6F72"/>
<path id="Path_4" fill-rule="evenodd" clip-rule="evenodd" d="M382.432 78.6777C382.982 76.1412 383.103 73.5244 383.763 71.0108C384.229 69.3764 384.807 67.7787 385.491 66.2297L387.918 60.3377C388.14 59.642 388.535 59.0198 389.062 58.5341C389.628 58.1695 390.284 57.9863 390.95 58.0073C393.321 57.9157 395.814 58.683 397.431 60.4981C399.049 62.3132 399.561 65.2505 398.273 67.329C396.733 69.8312 393.371 70.3351 391.362 72.4422C390.08 73.7878 389.458 75.6602 389.079 77.5096C388.077 82.3194 388.413 87.3066 388.105 92.2194C388.006 93.7482 387.72 95.4946 386.454 96.2848C385.689 96.6749 384.839 96.8467 383.989 96.783L380.379 96.8459C379.774 96.8459 377.579 97.241 377.177 96.7658C376.473 95.9355 378.079 91.8014 378.371 90.8796C379.02 88.8354 379.818 86.8428 380.572 84.8331C381.227 83.0409 382.432 80.6188 382.432 78.6777Z" fill="#BE6F72"/>
<path id="Path_5" fill-rule="evenodd" clip-rule="evenodd" d="M456.858 250.954C456.009 254.13 453.457 256.602 452.147 259.629C450.174 264.162 451.062 269.705 448.274 273.804C447.37 275.048 446.276 276.151 445.03 277.072C444.34 277.646 443.586 278.142 442.782 278.55C441.948 279 440.97 279.118 440.05 278.88C438.864 278.484 438.15 277.232 438.032 276.023C437.989 275.627 437.989 275.227 438.032 274.831C438.15 274.013 438.338 273.206 438.594 272.419C439.268 270.196 439.941 267.969 440.612 265.738C441.032 264.529 441.303 263.275 441.421 262.003C441.495 260.618 440.595 258.816 440.977 257.525C441.152 256.943 441.804 256.426 442.102 255.937C442.525 255.234 442.85 254.478 443.069 253.69C443.53 252.157 443.844 250.52 444.811 249.229C445.442 248.464 446.18 247.788 447.004 247.224C447.611 246.703 448.324 246.312 449.095 246.076C449.843 245.947 450.611 245.983 451.343 246.18C452.297 246.379 453.236 246.64 454.154 246.96H454.205C455.329 247.356 456.521 247.966 456.875 249.075C457.047 249.691 457.041 250.342 456.858 250.954Z" fill="#3F3D56"/>
<path id="Path_6" fill-rule="evenodd" clip-rule="evenodd" d="M515.982 183.359C515.949 184.18 515.846 185.095 515.195 185.609C514.628 185.963 513.954 186.118 513.285 186.048H513.138C511.201 186.048 509.231 185.943 507.397 186.53C506.003 186.98 504.722 187.806 503.268 187.97C501.266 188.193 499.383 187.123 497.608 186.191C495.938 185.313 494.223 184.518 492.47 183.809C491.319 183.348 488.97 183.052 488.416 181.824C488.227 181.242 488.067 180.652 487.939 180.055C487.848 179.788 487.737 179.528 487.608 179.277C487.282 178.741 487.075 178.144 487 177.525C487.002 176.908 487.22 176.31 487.619 175.83C488.513 174.798 489.792 174.156 491.173 174.046C492.54 173.942 493.916 174.014 495.264 174.258L508.624 176.132C509.655 176.275 510.691 176.418 511.706 176.662C512.669 176.825 513.578 177.213 514.354 177.795C515.933 179.086 516.063 181.358 515.982 183.359Z" fill="#3F3D56"/>
<path id="Path_7" fill-rule="evenodd" clip-rule="evenodd" d="M504.669 185.67C503.015 189.22 504.206 193.419 503.908 197.344C503.658 199.55 503.166 201.721 502.441 203.815C501.802 205.901 501.163 207.993 500.347 210.017C499.663 211.699 498.853 213.381 498.219 215.097C497.21 217.833 496.565 220.912 494.52 222.947C493.583 227.534 492.392 232.547 488.682 235.328C485.457 237.751 480.964 237.835 477.199 236.371C473.434 234.908 470.374 232.104 467.679 229.082C464.983 226.059 462.574 222.768 459.68 219.953C458.021 218.37 456.259 216.903 454.404 215.563C452.537 214.183 450.617 212.886 448.644 211.671C447.436 210.83 446.081 210.231 444.653 209.905C443.479 209.676 442.265 209.917 441.262 210.578C441.035 210.736 440.829 210.924 440.65 211.138C440.16 211.837 439.787 212.614 439.548 213.437C437.233 219.572 431.02 222.723 426.058 226.906L421.527 230.725C420.91 231.246 420.226 232.009 420.529 232.766C420.738 233.149 421.074 233.443 421.477 233.596C424.112 234.919 427.205 235.452 429.377 237.47C430.171 238.21 430.932 239.186 432.007 239.242C432.574 239.208 433.133 239.081 433.66 238.866C435.342 238.404 437.139 238.769 438.517 239.853C438.903 240.236 439.35 240.549 439.84 240.779C440.25 240.889 440.677 240.915 441.097 240.857C442.271 240.773 443.517 240.666 444.57 241.199C445.623 241.732 446.488 242.988 447.718 243.078C448.318 243.122 449.035 242.921 449.608 242.977C449.929 242.987 450.224 243.154 450.402 243.425C450.531 243.733 450.618 244.058 450.661 244.39C450.887 245.18 451.648 245.662 452.144 246.313C452.905 247.311 453.015 248.668 452.938 249.93C452.688 253.875 450.96 257.572 448.109 260.258C447.3 261.1 446.267 261.684 445.138 261.94C443.978 262.187 442.792 261.652 442.194 260.611C442.071 260.175 441.885 259.759 441.643 259.378C440.755 258.385 438.765 259.44 437.949 258.38C437.442 257.718 437.806 256.658 437.321 255.974C436.836 255.29 435.667 255.414 434.768 255.374C433.715 255.318 432.74 254.814 431.72 254.55C430.066 254.113 428.335 254.275 426.643 254.158C425.236 254.031 423.84 253.807 422.464 253.485L415.452 252.027C410.987 251.102 406.505 250.165 402.255 248.511C400.629 247.883 398.991 247.109 397.845 245.763C396.92 244.581 396.326 243.167 396.125 241.67C395.127 235.687 400.419 230.573 401.086 224.545C401.323 222.347 402.189 220.273 403.005 218.232C404.5 214.583 405.992 210.933 407.481 207.281C407.722 206.601 408.036 205.95 408.418 205.34C409.052 204.56 409.768 203.851 410.551 203.227C412.64 201.298 414.139 198.799 414.868 196.027C414.922 195.718 415.049 195.428 415.237 195.18C415.432 195.014 415.647 194.872 415.877 194.76C416.687 194.223 417.031 193.192 416.709 192.264C417.416 192.205 417.974 191.628 418.021 190.907C417.981 190.604 418 190.295 418.076 189.999C418.208 189.707 418.539 189.562 418.732 189.304C419.046 188.883 418.936 188.294 418.886 187.767C418.853 187.434 418.853 187.097 418.886 186.764C419.007 185.576 419.529 184.468 420.364 183.629C421.681 182.311 423.556 182.653 425.375 182.339C427.189 181.941 428.962 181.364 430.667 180.618C435.45 178.701 440.487 177.516 445.612 177.102C450.762 176.69 455.935 177.528 460.705 179.547C461.399 179.833 462.054 180.21 462.651 180.668C463.076 181.001 463.424 181.424 463.671 181.908C463.875 182.501 464.125 183.077 464.421 183.629C465.011 184.448 466.124 184.711 466.769 185.485C467.414 186.259 467.469 187.565 468.004 188.524C468.77 189.892 470.545 190.526 471.075 192.012C471.24 192.483 471.262 192.999 471.383 193.487C471.681 194.709 472.574 195.674 473.362 196.638C476.252 200.154 478.103 204.431 478.699 208.974C478.875 206.131 480.755 203.613 483.109 202.043C483.743 201.623 484.476 201.157 484.603 200.395C484.762 199.43 483.842 198.572 483.903 197.591C483.969 197.112 484.16 196.659 484.454 196.279C485.504 194.73 486.657 193.256 487.905 191.866C488.583 191.109 489.343 190.184 489.062 189.186C488.847 188.44 488.098 188.003 487.684 187.352C487.191 186.559 487.213 185.543 487.739 184.773C488.125 184.24 488.737 183.853 488.925 183.22C489.14 182.474 488.66 181.667 488.809 180.898C489.01 180.283 489.41 179.755 489.944 179.401C490.676 178.724 491.507 178.167 492.409 177.753C493.864 177.192 495.485 177.399 497.028 177.618C499.608 177.983 502.502 178.543 503.957 180.741C504.889 182.115 505.363 184.201 504.669 185.67Z" fill="#65617D"/>
<path id="Path_8" opacity="0.1" fill-rule="evenodd" clip-rule="evenodd" d="M515.981 183.084C515.947 183.969 515.841 184.956 515.168 185.509C514.581 185.89 513.885 186.057 513.193 185.983H513.041C513.271 184.796 514.691 184.117 514.938 182.913C515.023 182.166 514.799 181.416 514.32 180.842C513.12 179.194 511.19 178.281 509.271 177.614C503.851 175.724 498.044 175.282 492.407 176.33C490.874 176.584 489.383 177.05 487.975 177.716C487.508 178.013 487.059 178.337 486.628 178.686C486.292 178.108 486.078 177.465 486 176.798C486.002 176.133 486.228 175.489 486.64 174.972C487.564 173.86 488.887 173.168 490.314 173.05C491.728 172.938 493.15 173.015 494.544 173.278L508.357 175.297C509.423 175.451 510.494 175.605 511.543 175.868C512.54 176.044 513.479 176.463 514.281 177.089C515.931 178.481 516.065 180.928 515.981 183.084Z" fill="black"/>
<path id="Path_9" opacity="0.1" fill-rule="evenodd" clip-rule="evenodd" d="M456.82 252.099C455.973 255.371 453.426 257.919 452.119 261.038C450.15 265.709 451.036 271.422 448.254 275.645C447.351 276.928 446.259 278.064 445.016 279.014C444.328 279.605 443.575 280.116 442.772 280.537C441.941 281 440.964 281.121 440.046 280.876C438.862 280.469 438.149 279.178 438.032 277.932C437.989 277.524 437.989 277.112 438.032 276.704L438.065 276.794C438.553 277.983 439.35 279.229 440.607 279.438C441.56 279.508 442.499 279.173 443.199 278.515C445.05 277.015 446.127 274.779 447.154 272.622C447.957 271.066 448.593 269.428 449.05 267.736C449.275 266.774 449.381 265.788 449.611 264.826C450.677 260.15 454.307 256.334 455.109 251.595C455.175 251.269 455.19 250.935 455.154 250.604C455.048 250.173 454.886 249.758 454.672 249.37C454.477 248.932 454.334 248.472 454.245 248C455.367 248.408 456.557 249.036 456.91 250.18C457.055 250.816 457.024 251.48 456.82 252.099Z" fill="black"/>
<path id="Path_10" opacity="0.1" fill-rule="evenodd" clip-rule="evenodd" d="M450 242.984C449.486 244.35 448.621 245.55 447.495 246.461C445.914 247.685 444.063 248.498 442.103 248.831C441.191 249.067 440.233 249.056 439.326 248.797C438.093 248.362 437.205 247.189 435.944 246.85C435.045 246.602 434.078 246.822 433.167 246.686C431.529 246.455 430.257 245.185 428.936 244.169C424.887 241.077 419.573 240.078 415.524 236.986C415.344 236.873 415.195 236.716 415.091 236.529C415.013 236.326 414.985 236.107 415.008 235.891C415.023 234.015 415.438 232.165 416.224 230.468C416.868 229.284 417.635 228.173 418.512 227.155C422.138 222.641 425.781 218.092 430.124 214.283C431.946 212.686 433.934 211.196 436.233 210.474C437.51 210.073 440.032 209.695 441.587 210.372C441.357 210.531 441.15 210.721 440.97 210.937C440.476 211.64 440.1 212.422 439.859 213.25C437.521 219.43 431.263 222.601 426.264 226.811L421.7 230.654C421.078 231.179 420.389 231.946 420.694 232.708C420.904 233.093 421.243 233.39 421.65 233.543C424.304 234.875 427.42 235.411 429.608 237.443C430.407 238.188 431.174 239.17 432.257 239.226C432.828 239.192 433.391 239.064 433.923 238.848C435.617 238.382 437.427 238.75 438.815 239.841C439.204 240.227 439.655 240.541 440.148 240.772C440.561 240.883 440.991 240.91 441.414 240.851C442.597 240.767 443.852 240.659 444.913 241.196C445.974 241.732 446.846 242.996 448.084 243.086C448.7 243.131 449.422 242.917 450 242.984Z" fill="black"/>
<path id="Path_11" fill-rule="evenodd" clip-rule="evenodd" d="M397.232 167.499C396.157 168.183 395.014 168.957 394.572 170.145C394.21 171.115 394.38 172.225 393.944 173.166C393.508 174.108 392.529 174.764 392.314 175.773C392.162 176.507 392.462 177.281 392.314 178.015C392.186 178.397 392.082 178.786 392.003 179.181C391.947 180.016 392.671 180.695 393.378 181.16C396.433 183.127 400.248 183.543 403.661 182.281C405.172 181.72 406.536 180.807 407.985 180.089C409.398 179.283 411.014 178.894 412.643 178.968C413.576 179.069 414.471 179.405 415.404 179.529C416.341 179.712 417.308 179.427 417.991 178.766C418.279 178.372 418.473 177.918 418.557 177.438C419.343 174.36 418.987 171.098 418.24 168.004C417.493 164.91 416.361 161.933 415.563 158.856C414.997 156.574 414.561 154.237 413.616 152.079C412.671 149.921 411.081 147.914 408.856 147.09C408.681 147.005 408.482 146.979 408.291 147.017C408.148 147.076 408.022 147.169 407.923 147.286C406.163 149.133 404.838 151.342 404.04 153.755C403.152 156.44 402.909 159.287 402.094 161.984C401.743 163.105 401.29 164.607 400.396 165.465C399.502 166.322 398.245 166.855 397.232 167.499Z" fill="#3F3D56"/>
<path id="Path_12" opacity="0.1" fill-rule="evenodd" clip-rule="evenodd" d="M418.56 177.437C418.466 177.918 418.262 178.372 417.966 178.765C417.285 179.427 416.316 179.71 415.38 179.521C414.452 179.409 413.558 179.067 412.624 178.961C410.996 178.886 409.379 179.275 407.967 180.081C406.518 180.798 405.137 181.688 403.638 182.265C401.444 183.089 399.048 183.224 396.774 182.652C395.566 182.351 394.418 181.851 393.378 181.173C392.665 180.714 391.947 180.053 392.003 179.196C392.082 178.803 392.186 178.416 392.314 178.037C392.462 177.303 392.167 176.53 392.314 175.796C392.529 174.788 393.514 174.116 393.944 173.186C394.374 172.256 394.21 171.142 394.567 170.173C395.008 168.98 396.157 168.212 397.232 167.523C398.307 166.834 399.586 166.308 400.446 165.473C400.557 165.343 400.658 165.205 400.746 165.059C401.366 164.112 401.822 163.069 402.093 161.973C402.925 159.273 403.151 156.433 404.034 153.745C404.835 151.336 406.162 149.131 407.922 147.287C408.016 147.167 408.141 147.074 408.284 147.018C408.475 146.98 408.673 147.003 408.85 147.085C411.068 147.914 412.658 149.919 413.609 152.076C414.56 154.232 414.961 156.557 415.556 158.842C416.348 161.917 417.485 164.902 418.232 167.988C418.979 171.074 419.347 174.357 418.56 177.437Z" fill="black"/>
<path id="Path_13" opacity="0.1" fill-rule="evenodd" clip-rule="evenodd" d="M434.831 109.469C429.702 111.211 424.169 108.541 422 103.277C422.041 102.75 422.111 102.226 422.211 101.707C422.737 99.1177 424.992 100.063 426.772 100.75C428.915 101.494 430.988 102.453 432.961 103.615C433.563 103.946 434.085 104.42 434.489 105C435.269 106.244 434.958 107.899 434.831 109.469Z" fill="black"/>
<path id="Oval" fill-rule="evenodd" clip-rule="evenodd" d="M433 110C439.075 110 444 105.075 444 99C444 92.9249 439.075 88 433 88C426.925 88 422 92.9249 422 99C422 105.075 426.925 110 433 110Z" fill="#BE6F72"/>
<path id="Path_14" opacity="0.1" fill-rule="evenodd" clip-rule="evenodd" d="M462.999 181.052C462.999 182.005 461.753 182.309 460.828 182.257C457.505 182.056 454.255 181.109 450.965 181.396C446.806 181.787 442.985 184.169 438.815 184.388C437.209 184.474 435.575 184.227 433.991 184.531C431.942 184.927 430.115 186.219 428.027 186.403C426.216 186.564 424.427 185.857 422.616 185.932C421.35 186.01 420.116 186.375 419 187C419.121 185.784 419.646 184.65 420.484 183.79C421.808 182.441 423.691 182.791 425.518 182.47C427.341 182.062 429.122 181.471 430.835 180.707C435.64 178.744 440.699 177.531 445.848 177.107C451.019 176.681 456.214 177.533 461.005 179.593C461.703 179.886 462.36 180.272 462.96 180.742C462.991 180.842 463.004 180.947 462.999 181.052Z" fill="black"/>
<path id="Path_15" fill-rule="evenodd" clip-rule="evenodd" d="M427.285 119.324L422.731 117.656L420.808 116.956C420.024 116.631 419.199 116.414 418.356 116.311C416.152 116.144 414.077 117.595 412.902 119.446C411.727 121.298 411.283 123.505 410.906 125.656C410.389 128.599 409.95 131.553 409.59 134.518C409.203 137.196 409.006 139.897 409 142.602C409.129 149.484 410.602 156.272 412.222 162.971C413.015 165.942 413.614 168.959 414.015 172.005C414.15 173.262 414.212 174.524 414.347 175.786C414.493 177.204 414.729 178.605 414.966 180.011L416.321 188C418.007 186.816 419.925 185.776 422 185.715C423.838 185.648 425.66 186.327 427.493 186.171C429.601 185.999 431.468 184.748 433.549 184.364C435.157 184.069 436.815 184.303 438.451 184.225C442.68 184.014 446.565 181.701 450.782 181.329C454.127 181.028 457.45 181.962 460.802 182.157C461.735 182.213 463 181.918 463 180.99C463 180.345 462.348 179.917 461.78 179.594C459.103 178 456.556 176.203 454.161 174.218C451.946 172.484 449.697 170.705 448.173 168.358C444.501 162.716 445.761 155.083 442.629 149.128C440.082 144.292 442.629 137.954 442.629 132.5C442.629 129.781 442.629 127.03 441.983 124.389C441.578 122.912 441.075 121.463 440.476 120.052L438.288 114.576C438.243 114.416 438.153 114.272 438.03 114.159C437.883 114.059 437.708 114.007 437.529 114.009C436.216 113.931 434.92 114.342 433.897 115.16C432.868 115.989 432.21 117.178 431.198 118.04C430.091 118.991 428.662 119.825 427.285 119.324Z" fill="#E3E8F4"/>
<path id="Path_16" fill-rule="evenodd" clip-rule="evenodd" d="M433.571 116.621C433.927 115.108 434.312 113.533 435.331 112.351C436.351 111.169 438.211 110.545 439.526 111.39C441.019 112.351 441.08 114.572 442.356 115.809C443.47 116.87 445.141 116.953 446.657 117.091C449.381 117.337 452.057 117.962 454.606 118.947C455.103 119.1 455.556 119.369 455.926 119.731C456.623 120.516 456.484 121.72 456.829 122.698C457.302 123.957 458.612 124.758 459.119 126.012C459.676 127.405 459.119 128.962 458.651 130.393C457.809 132.962 457.28 135.63 456.461 138.21C455.642 140.79 454.478 143.331 452.562 145.275C451.715 146.137 450.456 146.933 449.342 146.419L448.913 149.485C448.788 150.133 448.788 150.798 448.913 151.446C449.045 152.107 449.547 152.636 450.205 152.805C450.289 153.28 450.796 153.507 451.208 153.766C451.823 154.183 452.243 154.827 452.376 155.553C452.509 156.28 452.343 157.029 451.915 157.633C451.565 158.103 451.046 158.473 450.879 159.031C450.629 159.837 451.225 160.688 451.949 161.13C452.673 161.572 453.525 161.776 454.261 162.202C455.787 163.075 456.606 164.793 457.13 166.461C457.52 167.72 457.843 169.085 458.801 170.002C459.169 170.35 459.609 170.615 459.96 170.98C460.567 171.691 460.918 172.584 460.957 173.515C461.11 174.67 460.854 175.841 460.233 176.83C459.119 178.41 457.041 178.879 455.219 179.592C452.261 180.796 449.826 182.951 447.219 184.785C446.157 185.633 444.906 186.216 443.57 186.486C441.765 186.724 439.988 185.934 438.172 185.862C437.086 185.872 436.004 186.013 434.952 186.282L431.61 187C431.788 184.431 430.362 181.857 429.565 179.41C428.061 174.802 427.783 169.875 428.139 165.047C428.496 160.219 429.487 155.457 430.468 150.717C431.153 147.402 431.086 143.939 432.139 140.718C433.125 137.619 434.534 134.641 435.053 131.415C435.899 126.195 432.379 121.77 433.571 116.621Z" fill="#3F3D56"/>
<path id="Path_17" fill-rule="evenodd" clip-rule="evenodd" d="M458.605 125.791C458.917 126.357 459.137 126.968 459.256 127.602C459.517 128.583 460.008 129.491 460.687 130.253C461.256 130.748 461.762 131.309 462.192 131.925C462.713 132.894 462.515 134.075 462.758 135.134C463.041 136.287 463.861 137.29 463.98 138.476C463.983 138.816 464.016 139.155 464.076 139.49C464.444 140.838 466.458 141.162 466.905 142.51C467.205 143.384 466.69 144.337 466.786 145.256C466.856 145.541 466.874 145.835 466.837 146.125C466.709 146.454 466.485 146.737 466.192 146.939C464.32 148.7 463.023 150.972 462.469 153.462C461.924 155.94 461.638 158.465 461.615 161L459.403 158.12C459.169 157.77 458.869 157.468 458.52 157.228C458.237 157.061 457.909 156.978 457.621 156.811C456.783 156.343 456.455 155.351 456.133 154.46C455.237 151.992 453.895 149.705 452.172 147.707C451.273 146.666 450.226 145.618 450.028 144.265C449.969 143.643 450.003 143.016 450.13 142.404C450.696 138.755 451.301 135.017 453.106 131.78C453.949 130.265 455.041 128.894 455.85 127.356C456.393 126.337 457.157 123.685 458.605 125.791Z" fill="#3F3D56"/>
<path id="Path_18" fill-rule="evenodd" clip-rule="evenodd" d="M404.848 129.105C404.858 129.562 404.74 130.012 404.507 130.406C404.078 130.896 403.406 131.106 402.77 130.949C402.143 130.794 401.554 130.521 401.032 130.146C399.499 129.192 397.967 128.236 396.435 127.278C395.579 126.77 394.755 126.212 393.965 125.608C392.759 124.604 391.666 123.475 390.704 122.241C388.032 118.988 385.667 115.458 382.692 112.482C381.884 111.668 381.042 110.888 380.262 110.036C379.194 108.806 378.213 107.505 377.325 106.144C376.467 104.891 375.576 103.503 375.725 102.007C375.813 101.161 376.225 100.38 376.346 99.5398C376.467 98.6994 376.143 97.6747 375.318 97.4469C375.22 97.4228 375.121 97.4065 375.021 97.3982C374.858 97.3811 374.698 97.3466 374.542 97.2951C373.778 96.9807 373.893 95.815 374.443 95.2023C374.993 94.5896 375.807 94.2481 376.308 93.5757C376.54 93.1768 376.801 92.7945 377.088 92.4317C377.457 92.1205 377.897 91.9027 378.37 91.7974C381.542 90.8757 384.897 90.7509 388.131 91.4341C388.681 91.5534 389.308 91.7703 389.473 92.2962C389.539 92.5524 389.539 92.8207 389.473 93.0769C389.23 94.146 389.09 95.2352 389.055 96.33C389.054 96.5583 389.067 96.7864 389.093 97.0132C389.352 99.3121 390.864 101.259 392.338 103.053C394.086 105.189 395.863 107.309 397.644 109.424C398.608 110.649 399.685 111.784 400.861 112.812C401.961 113.712 403.386 114.439 404.243 115.594C404.942 116.526 404.716 117.801 404.793 118.923C405.049 122.312 405.067 125.714 404.848 129.105Z" fill="#3F3D56"/>
<path id="Path_19" fill-rule="evenodd" clip-rule="evenodd" d="M475.083 152.967C475.621 152.433 476.107 151.846 476.534 151.215C476.992 150.433 477.358 149.598 477.625 148.728L480.789 139.576C481.29 138.129 481.792 136.677 482.425 135.27C483.08 133.751 483.854 132.288 484.569 130.819C486.407 126.954 487.828 122.896 488.807 118.718C488.98 118.144 489.037 117.541 488.977 116.944C488.824 115.981 488.109 115.23 487.427 114.546C486.742 113.79 485.96 113.132 485.103 112.587C484.235 112.036 483.185 111.864 482.19 112.109C480.794 112.526 479.916 113.984 479.594 115.447C479.272 116.91 479.392 118.407 479.256 119.898C479.059 122.034 478.339 124.098 478.165 126.24C478.072 127.481 478.165 128.733 478.017 129.968C477.749 131.59 477.194 133.149 476.381 134.569C474.608 137.952 472.214 140.955 469.328 143.415C468.537 144.01 467.825 144.708 467.211 145.49C466.698 146.272 466.35 147.155 466.191 148.083C465.828 149.494 465.986 150.993 466.633 152.294C467.522 153.841 469.229 154.52 470.86 154.864C473.064 155.332 473.572 154.564 475.083 152.967Z" fill="#BE6F72"/>
<path id="Path_20" fill-rule="evenodd" clip-rule="evenodd" d="M432.847 82.9946C433.833 81.1545 435.833 80.0788 437.925 80.2629C440.028 80.6324 441.736 82.1554 442.331 84.1907C442.595 85.0197 442.701 85.9377 443.161 86.6499C443.856 87.7236 445.145 88.0352 446.109 88.8141C447.273 89.8864 447.951 91.3784 447.993 92.9534C448.047 94.5459 447.794 96.134 447.247 97.6324C447.016 98.2717 446.828 98.926 446.687 99.5907C446.575 100.236 446.564 100.893 446.463 101.538C446.212 103.229 445.284 104.747 443.89 105.75C443.693 105.909 443.448 105.997 443.195 106C442.757 105.95 442.488 105.444 442.326 104.987C441.434 102.434 441.647 99.3126 440.005 97.2763C439.258 96.4549 438.355 95.7875 437.348 95.3124C436.937 95.0495 436.475 94.8769 435.991 94.8061C435.28 94.844 434.597 95.092 434.029 95.5182C432.846 96.3059 431.533 96.882 430.15 97.2207C428.752 97.5493 427.28 97.2345 426.142 96.3639C425.369 95.7296 424.803 94.7782 423.945 94.2831C423.087 93.7879 422.19 93.8157 421.344 93.4764C420.251 93.0149 419.433 92.0787 419.129 90.9391C418.824 89.7995 419.067 88.5842 419.785 87.6457C420.346 86.9781 421.176 86.5998 421.675 85.8598C422.319 84.9029 422.263 83.5899 422.571 82.4438C422.942 80.9727 424.004 79.7691 425.425 79.2113C426.808 78.7451 428.337 79.0628 429.416 80.0403C429.977 80.541 430.425 81.1864 430.974 81.7094C432.076 82.7564 433.639 83.1756 435.122 82.8221" fill="#3F3D56"/>
<path id="Path_21" opacity="0.1" fill-rule="evenodd" clip-rule="evenodd" d="M439.774 163.818C439.065 164.355 438.814 165.206 439.143 165.964C439.274 166.202 445.419 165.195 446.068 165.119C447.687 164.921 450.527 165.018 451.617 163.758C453.558 161.526 447.544 162.022 446.443 162.103C444.347 162.255 441.37 162.498 439.774 163.818Z" fill="black"/>
<path id="Path_22" fill-rule="evenodd" clip-rule="evenodd" d="M389.917 92.296C389.667 93.4656 389.523 94.6573 389.486 95.8552C387.783 96.217 386.013 95.6238 384.378 95.0306L379.685 93.3578C379.092 92.9621 378.307 93.1152 377.891 93.7078C377.136 94.5264 376.098 96.0806 375.054 97C374.885 96.9814 374.72 96.9436 374.56 96.8873C373.771 96.5432 373.89 95.2679 374.458 94.5976C375.025 93.9273 375.865 93.5536 376.382 92.818C376.622 92.3816 376.891 91.9633 377.187 91.5664C377.568 91.2259 378.022 90.9876 378.51 90.8724C381.784 89.8641 385.247 89.7274 388.584 90.475C389.151 90.6055 389.798 90.8427 389.968 91.4181C390.024 91.7105 390.006 92.0128 389.917 92.296Z" fill="#3F3D56"/>
<path id="Path_23" opacity="0.1" fill-rule="evenodd" clip-rule="evenodd" d="M389.917 92.296C389.667 93.4656 389.523 94.6573 389.486 95.8552C387.783 96.217 386.013 95.6238 384.378 95.0306L379.685 93.3578C379.092 92.9621 378.307 93.1152 377.891 93.7078C377.136 94.5264 376.098 96.0806 375.054 97C374.885 96.9814 374.72 96.9436 374.56 96.8873C373.771 96.5432 373.89 95.2679 374.458 94.5976C375.025 93.9273 375.865 93.5536 376.382 92.818C376.622 92.3816 376.891 91.9633 377.187 91.5664C377.568 91.2259 378.022 90.9876 378.51 90.8724C381.784 89.8641 385.247 89.7274 388.584 90.475C389.151 90.6055 389.798 90.8427 389.968 91.4181C390.024 91.7105 390.006 92.0128 389.917 92.296Z" fill="black"/>
<path id="Path_24" opacity="0.1" fill-rule="evenodd" clip-rule="evenodd" d="M431.054 198.797C431.857 199.018 432.727 199.339 433 200L426.544 198.65L423.198 197.948C422.607 197.824 420.489 197.682 420.098 197.301C419.541 196.741 421.52 197.126 421.877 197.168C422.959 197.301 424.04 197.439 425.116 197.599C427.146 197.898 429.097 198.389 431.054 198.797Z" fill="black"/>
<path id="Path_25" opacity="0.1" fill-rule="evenodd" clip-rule="evenodd" d="M434 204C433.462 203.668 431.919 203.707 431.257 203.564C430.289 203.35 429.338 203.068 428.386 202.795C426.455 202.215 424.541 201.555 422.556 201.128C422.191 201.054 420.943 201.034 421.002 200.608C421.061 200.181 422.25 200.032 422.545 200.012C424.304 199.893 426.498 200.652 428.133 201.193C430.216 201.881 432.19 202.825 434 204Z" fill="black"/>
<path id="Path_26" opacity="0.1" fill-rule="evenodd" clip-rule="evenodd" d="M429 193C427.218 192.514 425.602 191.405 423.767 191.191C423.289 191.21 422.818 191.066 422.432 190.783C422.216 190.571 422.066 190.301 422 190.005C423.228 189.942 424.655 190.462 425.772 190.953C426.386 191.217 426.977 191.533 427.539 191.896C427.947 192.144 428.558 192.859 429 193Z" fill="black"/>
<path id="Path_27" fill-rule="evenodd" clip-rule="evenodd" d="M467.536 143C466.859 147.848 469.613 152.493 474 153.905C473.742 155.242 472.45 155.981 471.538 156.934C470.251 158.271 469.587 160.274 468.068 161.289C466.376 162.417 464.198 161.977 462.268 161.503C462.093 161.482 461.931 161.392 461.815 161.25C461.775 161.182 461.746 161.108 461.73 161.03C461.092 158.531 460.676 155.862 461.33 153.357C461.857 151.225 463.122 149.409 464.135 147.524C465.147 145.64 465.242 143.621 467.536 143Z" fill="#3F3D56"/>
<path id="Path_28" fill-rule="evenodd" clip-rule="evenodd" d="M418.905 112.018C416.754 112.174 414.665 112.807 412.792 113.872C411.547 114.58 410.269 115.532 408.846 115.36C408.007 115.266 407.179 114.807 406.362 115.028C405.902 115.213 405.473 115.467 405.09 115.781C404.694 116.094 404.163 116.178 403.689 116.002L403.134 123.66C402.922 126.571 402.717 129.542 403.417 132.381C403.778 133.831 404.573 135.148 404.662 136.619C404.751 138.091 404.617 139.602 404.723 141.09C404.823 142.468 405.129 143.824 405.206 145.202C405.362 147.802 404.717 150.381 404.095 152.91C403.156 156.639 402.589 160.452 400.761 163.827C400.25 164.762 399.649 165.714 399.649 166.776C399.649 166.909 399.649 167.036 399.683 167.164C399.127 167.468 398.61 167.756 398.138 168.054C397.082 168.735 395.954 169.493 395.52 170.672C395.17 171.629 395.332 172.725 394.909 173.649C394.487 174.573 393.52 175.231 393.309 176.227C393.159 176.952 393.448 177.716 393.309 178.441C393.183 178.816 393.081 179.198 393.003 179.586C392.948 180.416 393.653 181.085 394.353 181.539C395.374 182.209 396.502 182.703 397.688 183L401.005 169.886C404.03 164.317 406.546 158.489 408.524 152.472C409.09 150.506 409.817 148.588 410.697 146.74C411.326 145.694 411.883 144.607 412.364 143.486C412.87 142.092 412.92 140.581 413.164 139.109C413.454 137.392 413.891 135.701 414.47 134.058C415.07 132.281 415.765 130.511 415.887 128.646C416.071 125.979 415.098 123.162 416.132 120.694C416.57 119.771 417.141 118.915 417.827 118.155C419.26 116.406 420.566 114.575 422 112.826C421.255 112.035 420.016 111.952 418.905 112.018Z" fill="#3F3D56"/>
<g id="Group" opacity="0.1">
<path id="Path_29" fill-rule="evenodd" clip-rule="evenodd" d="M435.081 81.5815L434.397 81.6304L434.321 81.6848C434.577 81.6744 434.832 81.6398 435.081 81.5815Z" fill="black"/>
<path id="Path_30" fill-rule="evenodd" clip-rule="evenodd" d="M447.601 92.8641C447.486 93.9446 447.251 95.0092 446.9 96.0381C446.674 96.6626 446.491 97.3018 446.353 97.9511C446.244 98.5815 446.233 99.2228 446.134 99.8533C445.889 101.505 444.984 102.988 443.623 103.967C443.431 104.123 443.192 104.209 442.944 104.212C442.517 104.163 442.255 103.668 442.096 103.223C441.226 100.728 441.434 97.6794 439.831 95.6902C439.101 94.8878 438.22 94.2359 437.237 93.7718C436.836 93.515 436.385 93.3463 435.913 93.2772C435.219 93.3143 434.552 93.5565 433.998 93.9728C432.843 94.7423 431.562 95.3051 430.212 95.6359C428.847 95.9569 427.41 95.6494 426.299 94.7989C425.544 94.1794 424.992 93.25 424.154 92.7663C423.317 92.2826 422.442 92.3098 421.615 91.9783C420.57 91.5347 419.785 90.6427 419.482 89.5544C419.462 89.4866 419.448 89.4176 419.438 89.3478C419.301 89.9545 419.316 90.5852 419.482 91.1848C419.785 92.2731 420.57 93.1652 421.615 93.6087C422.442 93.9402 423.372 93.9457 424.154 94.3968C424.937 94.8478 425.544 95.8098 426.299 96.4294C427.41 97.2799 428.847 97.5874 430.212 97.2663C431.562 96.9355 432.843 96.3727 433.998 95.6033C434.552 95.187 435.219 94.9447 435.913 94.9076C436.385 94.9768 436.836 95.1454 437.237 95.4022C438.208 95.8754 439.076 96.5327 439.792 97.337C441.396 99.3261 441.188 102.375 442.058 104.87C442.216 105.321 442.479 105.81 442.906 105.859C443.169 105.86 443.423 105.767 443.623 105.598C444.989 104.616 445.897 103.126 446.14 101.467C446.238 100.837 446.249 100.196 446.358 99.5652C446.497 98.9159 446.68 98.2767 446.906 97.6522C447.439 96.1885 447.686 94.6372 447.633 93.0815C447.622 93.0163 447.612 92.9402 447.601 92.8641Z" fill="black"/>
</g>
<path id="Path_31" fill-rule="evenodd" clip-rule="evenodd" d="M413 136L412.622 141.026C412.566 141.709 411.248 157.959 401.529 176.951C393.188 193.24 376.958 214.456 346.314 226.38C343.924 227.315 341.442 228.189 338.869 229L336 220.082C343.203 217.838 350.142 214.833 356.696 211.12C372.315 202.191 384.459 189.447 392.927 173.048C397.42 164.317 400.622 154.992 402.435 145.358H367.572V136L413 136Z" fill="#4D6DDD"/>
<path id="Path_32" opacity="0.1" fill-rule="evenodd" clip-rule="evenodd" d="M342.91 226.374C373.338 214.451 389.464 193.24 397.742 176.951C407.395 157.959 408.709 141.72 408.759 141.026L409.134 136H413L412.624 141.026C412.575 141.709 411.26 157.959 401.607 176.951C393.324 193.24 377.204 214.451 346.776 226.374C344.401 227.31 341.934 228.185 339.376 229L339 227.827C340.333 227.354 341.636 226.87 342.91 226.374Z" fill="white"/>
<path id="Path_33" fill-rule="evenodd" clip-rule="evenodd" d="M282 220.082L279.131 229C276.555 228.185 274.071 227.31 271.68 226.374C241.042 214.451 224.806 193.24 216.471 176.951C206.752 157.959 205.428 141.72 205.378 141.026L205 136H250.406V145.358H215.537C217.36 154.993 220.571 164.318 225.073 173.048C233.541 189.447 245.68 202.191 261.299 211.115C267.854 214.832 274.794 217.838 282 220.082Z" fill="#4D6DDD"/>
<path id="Path_34" opacity="0.1" fill-rule="evenodd" clip-rule="evenodd" d="M276.09 226.374C245.662 214.451 229.536 193.24 221.258 176.951C211.605 157.959 210.291 141.72 210.241 141.026L209.866 136H206L206.376 141.026C206.425 141.709 207.74 157.959 217.393 176.951C225.676 193.24 241.796 214.451 272.224 226.374C274.599 227.31 277.066 228.185 279.624 229L280 227.827C278.671 227.354 277.368 226.87 276.09 226.374Z" fill="white"/>
<path id="Path_35" fill-rule="evenodd" clip-rule="evenodd" d="M361 307.284V358H257V307.284L260.307 302.858C294.009 290.852 300.839 259.544 302.201 247.156C302.403 245.445 302.519 243.724 302.548 242H315.408C315.437 243.724 315.553 245.445 315.755 247.156C317.139 259.544 323.969 290.863 357.649 302.858L361 307.284Z" fill="#4D6DDD"/>
<rect id="Rectangle" opacity="0.1" x="257" y="307" width="104" height="7" fill="black"/>
<path id="Path_36" opacity="0.1" fill-rule="evenodd" clip-rule="evenodd" d="M265.809 302.858C299.472 290.852 306.293 259.544 307.653 247.156C307.856 245.445 307.971 243.724 308 242H302.494C302.466 243.724 302.35 245.445 302.147 247.156C300.765 259.544 293.944 290.863 260.303 302.858L257 307.284V358H262.506V307.284L265.809 302.858Z" fill="white"/>
<path id="Path_37" opacity="0.1" fill-rule="evenodd" clip-rule="evenodd" d="M241 136H251V146H241.887C241.528 142.706 241.232 139.373 241 136Z" fill="black"/>
<path id="Path_38" opacity="0.1" fill-rule="evenodd" clip-rule="evenodd" d="M281 220.526L278.228 230C275.739 229.135 273.34 228.205 271.03 227.211C267.23 222.159 263.872 216.732 261 211C267.333 214.949 274.038 218.143 281 220.526Z" fill="black"/>
<path id="Path_39" opacity="0.1" fill-rule="evenodd" clip-rule="evenodd" d="M337 220.52C343.961 218.136 350.666 214.945 357 211C354.126 216.733 350.767 222.162 346.968 227.216C344.657 228.211 342.259 229.138 339.773 230L337 220.52Z" fill="black"/>
<path id="Path_40" opacity="0.1" fill-rule="evenodd" clip-rule="evenodd" d="M377 136C376.767 139.373 376.472 142.706 376.113 146H367V136H377Z" fill="black"/>
<path id="Path_41" opacity="0.1" fill-rule="evenodd" clip-rule="evenodd" d="M315 248.326C310.707 249.225 306.293 249.225 302 248.326C302.194 246.558 302.306 244.78 302.333 243H314.667C314.694 244.78 314.806 246.558 315 248.326Z" fill="black"/>
<path id="Path_42" fill-rule="evenodd" clip-rule="evenodd" d="M242 121C242.236 190.112 271.914 246 308.5 246C345.086 246 374.758 190.112 375 121H242Z" fill="#4D6DDD"/>
<path id="Path_43" opacity="0.1" fill-rule="evenodd" clip-rule="evenodd" d="M253.913 121H242C242.238 190.112 272.159 246 309.044 246C311.04 245.996 313.032 245.83 315 245.501C280.902 239.865 254.14 186.351 253.913 121Z" fill="white"/>
<rect id="Rectangle_2" x="273" y="326" width="71" height="19" fill="#3F3D56"/>
<path id="Path_44" opacity="0.1" fill-rule="evenodd" clip-rule="evenodd" d="M276.32 328.591H344V326H273V345H276.32V328.591Z" fill="white"/>
<path id="Shape_2" fill-rule="evenodd" clip-rule="evenodd" d="M204.436 188.949C203.169 188.525 195.704 182.59 195.138 179.903C194.573 177.217 199.085 152.192 199.085 152.192C199.085 152.192 198.668 152.192 197.987 152.109V151.707L198.915 118.832C198.915 118.832 202.718 96.7689 195.533 98.054C188.348 99.3392 192.855 118.832 192.855 118.832C192.855 118.832 192.037 128.728 191.461 131.695C191.418 131.919 191.362 132.198 191.298 132.522C190.544 136.336 188.532 146.502 190.11 149.842C190.173 149.971 190.243 150.096 190.319 150.217C190.319 150.217 190.604 162.655 187.503 164.354C184.544 165.97 183.315 174.106 183.211 174.834L183.051 174.768C182.168 174.213 181.393 173.501 180.763 172.667C180.72 172.613 180.684 172.558 180.648 172.501C180.628 172.47 180.608 172.439 180.587 172.407C184.775 167.673 184.634 160.497 180.263 155.932C179.283 154.909 178.133 154.065 176.865 153.439C176.829 152.385 176.58 151.349 176.135 150.394C174.708 147.327 166.804 143.317 161.189 143.223C158.598 143.146 156.474 143.885 155.7 145.92C155.446 146.583 155.405 147.306 155.365 148.021C155.342 148.419 155.32 148.814 155.261 149.197C154.931 151.403 153.521 153.13 151.709 154.503C150.978 153.683 150.187 152.917 149.344 152.214C147.51 150.802 143.855 146.147 143.855 146.147C143.855 146.147 132.443 134.271 131.598 131.017C130.753 127.762 119.352 108.22 116.816 111.623C114.28 115.026 125.549 129.858 125.549 129.858C125.549 129.858 127.69 135.247 129.336 137.068C130.983 138.888 143.608 157.311 143.608 157.311L144.212 158.568C141.544 159.98 139.107 161.778 138.245 164.58C137.17 168.093 139.011 171.621 140.761 174.974C141.067 175.56 141.37 176.141 141.654 176.715C145.375 184.25 145.908 193.859 141.105 200.742C136.801 206.821 129.336 209.711 122.349 212.237C125.724 214.9 129.916 216.299 134.205 216.192C132.591 220.892 126.872 222.447 121.998 223.319C124.556 225.79 128.217 226.689 131.73 227.235C133.45 227.529 135.193 227.668 136.939 227.648H137.367L137.795 227.615C138.39 227.576 138.982 227.5 139.568 227.389C142.104 226.871 144.568 225.481 145.864 223.23C146.198 222.645 146.466 221.994 146.733 221.346L146.733 221.346C147.344 219.862 147.952 218.386 149.338 217.714C149.857 217.479 150.416 217.346 150.985 217.323H152.055L160.36 217.406H161.419C163.763 217.35 166.266 216.942 167.457 214.995C167.947 214.05 168.205 213 168.209 211.934C168.312 210.383 168.294 208.805 168.276 207.227V207.227C168.264 206.117 168.251 205.008 168.281 203.908C168.989 208.757 169.73 216.313 167.968 219.104C166.536 221.219 164.801 223.11 162.819 224.714C162.321 225.135 161.865 225.604 161.458 226.115C161.189 226.308 161.03 226.413 161.03 226.413L160.86 226.926C160.234 227.879 159.781 228.936 159.52 230.048C159.424 230.333 159.389 230.636 159.416 230.936C159.495 231.098 159.275 231.468 159.021 231.895C158.661 232.502 158.232 233.224 158.499 233.622C154.591 238.228 153.85 245.205 153.85 245.205L146.715 256.094C143.048 265.774 137.559 266.767 137.559 266.767C137.559 266.767 124.665 258.074 124.314 257.649C123.963 257.224 119.034 255.101 119.034 255.101C118.452 254.077 117.565 253.262 116.498 252.773C114.807 252.067 114.664 249.464 114.664 249.464C114.456 243.313 110.861 242.845 110.861 242.845C107.962 242.596 105.75 243.115 104.049 244.064L103.533 244.102C101.041 244.306 98.0439 244.532 94.7505 244.753C85.5894 245.36 83.4103 251.322 83.4103 251.322C83.4103 251.322 82.285 252.597 83.7616 253.976C85.0945 255.22 92.927 254.218 94.7327 253.987C94.8792 253.968 94.986 253.954 95.0465 253.947C94.3406 254.019 93.6275 253.967 92.9391 253.794C94.4266 253.738 96.474 253.683 98.2195 253.683H98.6422C98.5323 254.613 98.4791 255.549 98.483 256.485C98.483 258.25 103.341 259.381 103.341 259.381L118.133 272.619C118.133 272.619 127.432 276.795 133.349 282.801C139.266 288.808 144.497 283.623 144.497 283.623C150.76 282.068 168.78 260.175 168.797 260.153C168.797 260.793 169.175 282.084 169.894 286.359C169.923 286.576 169.976 286.789 170.054 286.993C170.899 288.83 169.768 293.85 169.28 295.968C168.968 297.74 168.848 299.542 168.923 301.34C168.923 301.34 162.166 327.264 162.726 329.542C163.286 331.82 159.065 342.405 159.065 342.405V351.231L159.8 351.192C159.705 351.334 159.617 351.482 159.537 351.633L159.487 351.727C159.487 351.727 163.994 352.714 167.024 352.433C170.054 352.152 175.257 354.777 175.257 354.777C175.257 354.777 177.019 355.616 182.442 355.969C187.865 356.322 187.865 353.564 187.865 353.564C187.245 349.808 178.677 348.55 178.413 348.511C177.722 348.076 177.074 347.601 176.542 347.193L176.432 347.105C176.468 347.022 176.499 346.937 176.525 346.851C177.442 343.1 172.37 341.473 172.37 341.473V340.558C175.663 338.859 176.316 327.198 176.316 327.198C176.316 327.198 181.257 312.78 181.948 310.375C182.64 307.97 181.948 304.368 181.948 304.368L182.442 301.257C182.442 301.257 183.502 299.139 183.502 298.714C183.639 297.638 184.051 296.616 184.698 295.747C185.472 294.826 183.853 292.636 183.853 292.636L185.264 288.962V284.93L188.557 270.302C188.557 270.302 192.009 253.264 190.813 247.688C189.616 242.111 192.224 239.276 192.224 239.276C191.989 239.4 191.747 239.511 191.499 239.607C191.829 238.841 192.113 238.057 192.35 237.257L199.76 238.178V238.289H202.433C202.433 238.289 201.588 227.808 201.588 223.583C201.588 219.358 204.436 204.195 204.436 204.195C204.436 204.195 205.704 189.374 204.436 188.949ZM171.541 176.715C171.541 177.03 171.519 177.354 171.496 177.686C171.489 177.79 171.482 177.895 171.475 178L171.327 178.227L171.053 177.995L170.718 178.519L170.619 178.569C170.284 178.395 170.024 177.843 169.789 177.345C169.517 176.767 169.28 176.262 169 176.511L168.928 176.572C168.813 176.44 168.698 176.401 168.577 176.511L168.467 176.605V176.114C169.471 176.374 170.504 176.505 171.541 176.506C171.545 176.554 171.544 176.602 171.542 176.649C171.542 176.671 171.541 176.694 171.541 176.715ZM196.346 225.519H196.187C196.148 225.757 196.115 225.983 196.082 226.214L196.346 225.519ZM169.131 350.602L168.121 350.348L168.67 350.254L169.181 350.591L169.241 350.635L169.131 350.602ZM178.446 348.528C178.776 348.738 179.116 348.942 179.451 349.118C179.051 348.855 178.673 348.651 178.507 348.561C178.482 348.547 178.461 348.536 178.446 348.528Z" fill="url(#paint1_linear)"/>
<path id="Path_45" fill-rule="evenodd" clip-rule="evenodd" d="M200 215L192.932 232.533H194.648L188 237.578L200 239V215Z" fill="#F86D70"/>
<path id="Path_46" opacity="0.1" fill-rule="evenodd" clip-rule="evenodd" d="M200 215L192.932 232.533L191.152 232.078L188 237.578L200 239V215Z" fill="black"/>
<path id="Path_47" fill-rule="evenodd" clip-rule="evenodd" d="M190 226H200.241L204 194H190V226Z" fill="#F86D70"/>
<path id="Path_48" opacity="0.1" fill-rule="evenodd" clip-rule="evenodd" d="M190 226H200.241L204 194H190V226Z" fill="black"/>
<path id="Path_49" fill-rule="evenodd" clip-rule="evenodd" d="M168.086 203L170.388 202.615L175.678 201.722C175.678 201.722 191.566 198.161 194.845 197.871C196.832 197.61 198.77 197.061 200.596 196.241C201.455 195.872 202 195.593 202 195.593L196.277 185.206L187.399 178.665C187.399 178.665 181.783 177.476 179.407 174.227C178.33 172.807 178.053 170.94 178.672 169.271C180.121 164.806 170.018 173.541 170.018 173.541C170.018 173.541 170.113 175.634 170.018 178.302C170.018 178.826 169.967 179.373 169.928 179.932C169.928 180.3 169.877 180.668 169.838 181.048C169.591 183.699 169.085 186.428 168.086 188.058C165.643 192.043 168.086 203 168.086 203Z" fill="#FBBEBE"/>
<path id="Path_50" opacity="0.1" fill-rule="evenodd" clip-rule="evenodd" d="M171 178H171.215C171.602 178 171.914 177.171 172.29 177.133C175.317 176.841 178.081 176.201 180 174.04C178.972 172.662 178.706 170.853 179.296 169.234C180.683 164.9 171.011 173.373 171.011 173.373C171.011 173.373 171.113 175.41 171 178Z" fill="black"/>
<path id="Path_51" fill-rule="evenodd" clip-rule="evenodd" d="M158 164.999C157.999 168.182 159.262 171.236 161.513 173.487C163.764 175.738 166.817 177.001 170 177C170.394 177 170.783 177 171.171 176.945C177.615 176.313 182.395 170.682 181.974 164.22C181.553 157.759 176.082 152.796 169.61 153.006C163.139 153.217 158.001 158.523 158 164.999Z" fill="#FBBEBE"/>
<path id="Path_52" fill-rule="evenodd" clip-rule="evenodd" d="M154.828 146.722C154.429 147.76 154.551 148.921 154.39 150.02C153.796 153.988 149.785 156.366 146.157 158.029C142.529 159.692 138.435 161.662 137.282 165.496C136.017 169.643 138.779 173.801 140.699 177.69C144.438 185.269 144.97 194.935 140.144 201.867C135.856 208.006 128.384 210.919 121.349 213.475C124.735 216.155 128.942 217.564 133.249 217.46C131.634 222.187 125.893 223.755 121 224.626C123.568 227.115 127.246 228.019 130.769 228.566C133.337 228.968 135.972 229.23 138.535 228.711C141.098 228.192 143.528 226.791 144.848 224.525C145.958 222.589 146.335 219.949 148.338 218.972C149.242 218.614 150.215 218.471 151.183 218.554L159.504 218.643C162.095 218.643 165.163 218.442 166.5 216.215C166.993 215.264 167.252 214.208 167.254 213.135C167.615 207.643 166.566 201.839 168.813 196.827C169.49 195.315 165.146 192.921 165.601 191.319C167.165 185.811 167.559 181.474 167.543 175.743C167.543 171.306 170.411 167.483 172.779 163.738C175.148 159.993 177.129 155.266 175.259 151.248C173.151 146.767 157.319 140.254 154.828 146.722Z" fill="#3F3D56"/>
<path id="Path_53" fill-rule="evenodd" clip-rule="evenodd" d="M167 348.767L169.053 350.146L169.37 350.358L169.429 350.396L171.864 352.03L177.55 353L182.548 352.651C182.548 352.651 183.989 349.601 181.726 349.672C181.001 349.634 180.295 349.427 179.662 349.067L179.35 348.909C179.023 348.735 178.695 348.539 178.372 348.332C177.7 347.901 177.066 347.433 176.556 347.035C175.803 346.447 175.303 346 175.303 346L167 348.767Z" fill="#FBBEBE"/>
<path id="Path_54" opacity="0.1" fill-rule="evenodd" clip-rule="evenodd" d="M167 350.097L167.318 350.313L167.378 350.352L169.822 352.014L175.529 353L180.546 352.645C180.546 352.645 181.992 349.543 179.721 349.615C178.994 349.577 178.285 349.366 177.649 349C178.049 349.321 178.383 349.67 178.415 349.964C178.507 350.756 174.704 352.18 174.704 352.18L169.341 350.723C169.341 350.723 168.43 350.457 167.183 350.125L167.065 350.091L167 350.097Z" fill="black"/>
<path id="Path_55" fill-rule="evenodd" clip-rule="evenodd" d="M158 352.018C158 352.018 162.602 352.942 165.696 352.677C168.79 352.413 174.121 354.861 174.121 354.861C174.121 354.861 175.922 355.639 181.461 355.971C187 356.302 187 353.72 187 353.72C186.368 350.208 177.616 349.052 177.345 349C177.452 349.052 177.909 349.265 178.372 349.55C178.993 349.923 179.665 350.411 179.716 350.805C179.812 351.541 175.831 352.879 175.831 352.879L170.219 351.521C170.219 351.521 169.265 351.266 167.96 350.955H167.836C165.902 350.471 163.937 350.099 161.952 349.84C159.536 349.602 158.299 351.489 158.045 351.915C158.027 351.948 158.012 351.983 158 352.018H158Z" fill="#3F3D56"/>
<path id="Path_56" fill-rule="evenodd" clip-rule="evenodd" d="M88 251.405L90.3319 252.976C90.3319 252.976 91.0104 252.947 92.0229 252.919H92.346C93.7947 252.871 95.7927 252.824 97.4891 252.824C98.5857 252.781 99.6845 252.835 100.769 252.985C101.932 253.344 104 247.14 104 247.14L101.663 246.667L100.887 246.506L100.349 246.393L98.4477 246L92.6853 246.577L88.6355 248.866L88 251.405Z" fill="#FBBEBE"/>
<path id="Path_57" opacity="0.1" fill-rule="evenodd" clip-rule="evenodd" d="M88 251.424L90.2258 253C90.2258 253 90.8735 252.972 91.8399 252.943C91.3964 252.785 91.0308 252.483 90.8118 252.094C89.3725 248.406 96.5125 246.831 96.5125 246.831L99.8383 246.698L100.486 246.669H101L100.26 246.508L99.7457 246.394L97.9312 246L92.431 246.579L88.5654 248.876L88 251.424Z" fill="black"/>
<path id="Path_58" fill-rule="evenodd" clip-rule="evenodd" d="M83.7715 254.356C85.23 255.808 94.7831 254.356 95.184 254.32C94.459 254.408 93.7251 254.353 93.0184 254.158C92.3097 254.021 91.6961 253.547 91.3482 252.867C89.7895 248.198 97.5221 246.211 97.5221 246.211L101.124 246.043L101.82 246.007L110.577 245.599L111 243C111 243 108.155 243.288 103.69 243.672C101.18 243.894 98.1234 244.14 94.8221 244.374C85.5975 245.035 83.404 251.487 83.404 251.487C83.404 251.487 82.2851 252.867 83.7715 254.356Z" fill="#3F3D56"/>
<path id="Path_59" fill-rule="evenodd" clip-rule="evenodd" d="M189.568 150.955C189.625 151.087 189.692 151.213 189.77 151.333L191.801 154.444L197.086 155L197.145 152.811L198.033 119.873C198.033 119.873 201.691 97.7805 194.779 99.0529C187.867 100.325 192.205 119.873 192.205 119.873C192.205 119.873 191.418 129.785 190.866 132.763C190.329 135.642 187.92 147.343 189.568 150.955Z" fill="#FBBEBE"/>
<path id="Path_60" fill-rule="evenodd" clip-rule="evenodd" d="M177 232.377L178.518 235.253L181.915 241.689C181.915 241.689 188.074 244.19 189.652 242.283C190.516 241.243 191.449 237.612 192.104 234.558C192.641 232.086 193 230 193 230L177 232.377Z" fill="#FBBEBE"/>
<path id="Path_61" opacity="0.1" fill-rule="evenodd" clip-rule="evenodd" d="M177 231.797L178.518 234C178.614 233.931 178.7 233.853 178.776 233.768C180.493 231.911 188.053 233.372 192.104 233.49C192.641 231.597 193 230 193 230L177 231.797Z" fill="black"/>
<path id="Path_62" opacity="0.1" fill-rule="evenodd" clip-rule="evenodd" d="M97 252.802C98.161 252.753 99.3244 252.814 100.472 252.983C101.704 253.388 103.893 246.395 103.893 246.395L100.598 245.67L109.567 245.308L110 243C110 243 107.086 243.256 102.514 243.597C101.569 244.106 100.726 244.764 100.022 245.542L99.8851 245.702C97.975 247.893 97.268 250.718 97 252.802Z" fill="black"/>
<path id="Path_63" opacity="0.1" fill-rule="evenodd" clip-rule="evenodd" d="M167 348.547L169.49 350C173.205 349.408 176.598 348.478 176.999 347.015C177 346.992 177 346.968 176.999 346.945C176.208 346.408 175.683 346 175.683 346L167 348.547Z" fill="black"/>
<path id="Path_64" opacity="0.1" fill-rule="evenodd" clip-rule="evenodd" d="M158 352C161.351 351.787 164.69 351.329 168 350.629C166.023 349.936 164.014 349.402 161.985 349.029C159.522 348.69 158.26 351.373 158 352Z" fill="black"/>
<path id="Path_65" fill-rule="evenodd" clip-rule="evenodd" d="M99 256.735C99 258.475 103.818 259.589 103.818 259.589L118.491 272.593C118.491 272.593 127.711 276.696 133.576 282.606C139.441 288.516 144.615 283.441 144.615 283.441C150.83 281.913 168.732 260.353 168.732 260.353C168.732 260.353 169.149 284.975 169.987 286.781C170.826 288.587 169.708 293.526 169.22 295.616C168.912 297.359 168.795 299.13 168.869 300.898C168.869 300.898 162.166 326.42 162.725 328.647C163.284 330.873 159.091 341.307 159.091 341.307V350C159.091 350 175.507 349.372 176.411 345.689C177.316 342.006 172.295 340.401 172.295 340.401V339.495C175.584 337.825 176.203 326.355 176.203 326.355C176.203 326.355 181.098 312.167 181.794 309.804C182.49 307.441 181.794 303.888 181.794 303.888L182.282 300.833C182.282 300.833 183.329 298.743 183.329 298.328C183.466 297.269 183.875 296.263 184.518 295.408C185.285 294.502 183.679 292.347 183.679 292.347L185.077 288.729V284.767L188.366 270.372C188.366 270.372 191.792 253.608 190.602 248.113C189.413 242.617 192 239.84 192 239.84C186.393 242.765 183.564 236.255 182.638 233.455C182.402 232.735 182.287 232.255 182.287 232.255C182.287 232.255 174.586 229.428 167.417 230.105C165.961 230.222 164.526 230.525 163.147 231.005C155.183 233.859 153.927 245.679 153.927 245.679L146.873 256.391C143.239 265.919 137.791 266.89 137.791 266.89C137.791 266.89 125.008 258.339 124.636 257.919C124.263 257.499 119.396 255.414 119.396 255.414C118.82 254.406 117.94 253.604 116.88 253.122C115.203 252.424 115.065 249.848 115.065 249.848C114.857 243.796 111.294 243.3 111.294 243.3C98.9287 242.274 99 254.999 99 256.735Z" fill="#3F3D56"/>
<rect id="Rectangle_3" x="177" y="223" width="7" height="23" transform="rotate(-180 177 223)" fill="#F86D70"/>
<rect id="Rectangle_4" opacity="0.1" x="177" y="223" width="7" height="23" transform="rotate(-180 177 223)" fill="black"/>
<path id="Path_66" opacity="0.1" fill-rule="evenodd" clip-rule="evenodd" d="M190.001 151C190 151.016 190 151.033 190.001 151.049C190.053 151.178 190.116 151.301 190.187 151.418L192.064 154.457L196.946 155L197 152.862C195.477 152.731 192.01 152.27 190.001 151Z" fill="black"/>
<path id="Path_67" fill-rule="evenodd" clip-rule="evenodd" d="M189.199 151C189.199 151 189.484 163.426 186.351 165.122C183.217 166.818 182 175.652 182 175.652C182 175.652 191.494 181.848 193.611 184.575C195.728 187.302 200.586 193.797 199.587 195.349C198.587 196.901 202.011 203.967 202.011 203.967C202.011 203.967 195.744 216.681 197.168 221.486C198.593 226.292 198.732 239 198.732 239H201.441C201.441 239 200.586 228.547 200.586 224.307C200.586 220.068 203.429 204.954 203.429 204.954C203.429 204.954 204.714 190.123 203.429 189.702C202.145 189.28 194.605 183.345 194.035 180.657C193.466 177.969 198.023 152.945 198.023 152.945C198.023 152.945 192.187 152.696 189.199 151Z" fill="#F86D70"/>
<path id="Path_68" opacity="0.1" fill-rule="evenodd" clip-rule="evenodd" d="M169 197.172C169.261 198.896 169.897 200.543 170.866 202L176.143 201.116C176.143 201.116 191.992 197.592 195.263 197.305C197.245 197.047 199.178 196.503 201 195.692C199.744 191.305 197.293 187.341 193.913 184.23L191.902 182.391C188.938 179.678 185.503 177.513 181.762 176C181.997 176.193 198.625 190.19 194.983 192.936C191.342 195.681 181.538 188.997 181.538 188.997L170.389 179.552L169.986 179.209L169.342 180.198C169.67 180.331 169.989 180.482 170.3 180.651C174.099 182.707 176.919 186.163 178.143 190.262C180.434 197.857 169 197.172 169 197.172Z" fill="black"/>
<path id="Path_69" fill-rule="evenodd" clip-rule="evenodd" d="M167 232.219C167 232.219 177.341 238.417 179.853 234.942C180.401 234.177 181.558 233.844 183 233.755C182.764 232.973 182.649 232.451 182.649 232.451C182.649 232.451 174.945 229.378 167.773 230.114C167.302 231.395 167 232.219 167 232.219Z" fill="#444053"/>
<path id="Path_70" fill-rule="evenodd" clip-rule="evenodd" d="M171.802 178.179L183.21 187.903C183.21 187.903 192.853 194.557 196.487 191.811C200.122 189.065 183.426 175 183.426 175C187.113 176.506 190.501 178.648 193.434 181.325L195.42 183.151C200.642 187.947 201.821 187.947 201.998 194.996C202.042 196.733 201.444 199.227 200.985 199.677C199.292 201.321 198.108 213.265 198.368 214.663C198.628 216.061 195.215 228.125 196.321 231.479C197.428 234.834 182.491 229.802 179.962 233.02C177.434 236.237 167 230.504 167 230.504C167 230.504 172.781 215.83 174.192 214.855C175.603 213.879 177.296 206.331 174.192 202.84C171.088 199.348 170.812 195.993 170.812 195.993C170.812 195.993 182.098 196.684 179.835 189.147C178.547 184.727 175.38 181.081 171.16 179.16L171.802 178.179Z" fill="#E8E8F0"/>
<path id="Path_71" opacity="0.1" fill-rule="evenodd" clip-rule="evenodd" d="M186.991 204C186.991 204 182.19 211.644 175.981 213.628C175.781 213.69 175.586 213.746 175.374 213.798C168.892 215.464 187.476 206.369 186.991 204Z" fill="black"/>
<path id="Path_72" fill-rule="evenodd" clip-rule="evenodd" d="M124.428 130.559C124.428 130.559 126.613 135.917 128.362 137.748C130.112 139.578 143.079 157.903 143.079 157.903L144.177 160.114L145.121 162L153.428 161.154L154 157.914L153.68 157.538C152.845 156.57 150.569 153.971 149.043 152.838C147.15 151.433 143.359 146.783 143.359 146.783C143.359 146.783 131.558 134.939 130.683 131.698C129.809 128.458 118.002 109.027 115.383 112.389C112.764 115.751 124.428 130.559 124.428 130.559Z" fill="#FBBEBE"/>
<g id="Group_2" opacity="0.1">
<path id="Path_73" fill-rule="evenodd" clip-rule="evenodd" d="M148.374 217.16C147.4 217.076 146.42 217.216 145.509 217.568C143.499 218.534 143.119 221.145 142.002 223.06C140.696 225.301 138.205 226.686 135.642 227.2C135.132 227.297 134.618 227.367 134.1 227.409C135.733 227.566 137.38 227.496 138.992 227.2C141.556 226.686 144.046 225.301 145.353 223.06C146.47 221.145 146.85 218.534 148.86 217.568C149.388 217.333 149.957 217.202 150.535 217.182L148.374 217.16Z" fill="black"/>
<path id="Path_74" fill-rule="evenodd" clip-rule="evenodd" d="M168.21 174.82C168.21 170.432 171.097 166.651 173.476 162.947C175.855 159.244 177.854 154.569 175.972 150.595C174.364 147.2 164.67 142.647 159.074 143.546C164.552 144.247 171.304 147.813 172.622 150.595C174.504 154.569 172.505 159.244 170.126 162.947C167.747 166.651 164.848 170.432 164.859 174.82C164.859 180.483 164.474 184.755 162.899 190.225C162.447 191.798 166.808 194.177 166.138 195.667C163.871 200.634 164.932 206.364 164.569 211.795C164.562 212.856 164.299 213.9 163.804 214.842C162.687 216.657 160.397 217.127 158.169 217.226H160.118C162.721 217.226 165.809 217.027 167.155 214.825C167.65 213.884 167.912 212.839 167.92 211.778C168.283 206.347 167.222 200.612 169.489 195.65C170.17 194.16 165.798 191.787 166.25 190.208C167.825 184.777 168.221 180.483 168.21 174.82Z" fill="black"/>
</g>
<path id="Path_75" opacity="0.1" fill-rule="evenodd" clip-rule="evenodd" d="M143 159.31L143.96 161L152.418 160.242L153 157.337L152.674 157C151.772 157.377 145.014 160.147 143 159.31Z" fill="black"/>
<path id="Path_76" opacity="0.1" fill-rule="evenodd" clip-rule="evenodd" d="M173 181.47C173 181.47 171.04 178.364 169.92 179.207C168.8 180.05 168.366 176.661 167.724 177.227C167.081 177.792 165.209 179.368 164.43 177.166C163.82 175.413 157.188 164.324 154.498 159.864C153.806 158.71 153.372 158 153.372 158C153.372 158 145.817 161.816 144 160.546V163.231L145.537 163.375L153.773 178.907C153.773 178.907 156.364 183.073 156.189 184.527C156.013 185.98 159.51 192.343 160.07 192.764C160.63 193.186 166.659 200.258 166.659 200.258C166.659 200.258 169.739 215.53 167.076 219.773C164.413 224.017 159.801 227.123 159.801 227.123C159.801 227.123 158.412 231.223 158.615 231.65C158.818 232.077 157.001 233.913 157.841 234.479C158.681 235.045 159.801 239 159.801 239C159.801 239 163.721 232.637 165.841 231.65C167.96 230.663 170.672 217.649 170.672 217.649C170.672 217.649 171.446 209.983 171.507 205.035C171.567 200.086 171.32 181.47 173 181.47Z" fill="black"/>
<path id="Path_77" fill-rule="evenodd" clip-rule="evenodd" d="M173 181.461C173 181.461 171.045 178.355 169.925 179.198C168.805 180.041 168.366 176.653 167.729 177.219C167.092 177.784 165.22 179.359 164.435 177.158C163.82 175.405 157.188 164.321 154.503 159.863L153.378 158C153.378 158 145.823 161.815 144 160.545V163.229L145.543 163.373L153.778 178.899C153.778 178.899 156.375 183.063 156.194 184.516C156.013 185.969 159.488 192.329 160.076 192.75C160.663 193.171 166.664 200.241 166.664 200.241C166.664 200.241 169.744 215.506 167.087 219.748C165.683 221.879 163.976 223.788 162.019 225.415C160.376 226.784 159.22 228.657 158.725 230.749C158.63 231.034 158.596 231.337 158.626 231.636C158.829 232.058 157.012 233.899 157.852 234.464C158.692 235.03 159.823 239 159.823 239C159.823 239 163.743 232.64 165.863 231.653C167.982 230.666 170.7 217.658 170.7 217.658C170.7 217.658 171.468 209.995 171.534 205.049C171.6 200.102 171.353 181.461 173 181.461Z" fill="#F86D70"/>
<path id="Path_78" opacity="0.1" fill-rule="evenodd" clip-rule="evenodd" d="M152.775 245C152.775 245 159.113 246.034 161.652 247.631C164.191 249.228 152 245.129 152 245.129L152.775 245Z" fill="black"/>
<path id="Path_79" opacity="0.1" fill-rule="evenodd" clip-rule="evenodd" d="M168 260C168 260 172.748 265.119 171.898 269.742C171.048 274.366 168.854 286 168.854 286L168 260Z" fill="black"/>
<path id="Path_80" opacity="0.1" fill-rule="evenodd" clip-rule="evenodd" d="M113 251C113 251 105.539 252.187 106.023 253.594C106.506 255.002 113 252.297 113 252.297V251Z" fill="black"/>
<path id="Path_81" opacity="0.1" fill-rule="evenodd" clip-rule="evenodd" d="M180.967 293.706C180.967 293.706 181.469 294.368 178.537 293.706C175.605 293.044 177.769 291 177.769 291L180.967 293.706Z" fill="black"/>
<path id="Path_82" opacity="0.1" fill-rule="evenodd" clip-rule="evenodd" d="M180 302.5C180 302.5 175.692 303.625 173.382 302.5C171.072 301.375 180 302.5 180 302.5Z" fill="black"/>
<path id="Path_83" opacity="0.1" fill-rule="evenodd" clip-rule="evenodd" d="M171 340.298C171 340.298 170.176 339.206 166.051 341.204C161.926 343.201 160.278 343.294 159.078 342.63C157.877 341.967 171 340.298 171 340.298Z" fill="black"/>
<path id="Path_84" opacity="0.1" fill-rule="evenodd" clip-rule="evenodd" d="M175 249L169 256C169 256 172.229 249.871 175 249Z" fill="black"/>
<path id="Path_85" opacity="0.1" fill-rule="evenodd" clip-rule="evenodd" d="M164 179C164 179 163.792 181.863 160.691 182.979C157.59 184.096 157 185 157 185" fill="black"/>
<path id="Path_86" opacity="0.1" fill-rule="evenodd" clip-rule="evenodd" d="M156 161C156 161 151.107 164.669 146 163.892L156 161Z" fill="black"/>
<path id="Path_87" opacity="0.1" fill-rule="evenodd" clip-rule="evenodd" d="M160 232.915C160 232.915 161.176 233.779 164 230L160 232.915Z" fill="black"/>
<path id="Path_88" opacity="0.1" fill-rule="evenodd" clip-rule="evenodd" d="M192.978 192C193.106 191.393 192.649 190.83 192.22 190.355L191.339 189.376C191.167 189.175 190.973 188.992 190.761 188.827C190.231 188.45 189.552 188.338 189 188" fill="black"/>
<path id="Path_89" opacity="0.1" fill-rule="evenodd" clip-rule="evenodd" d="M488.136 0.0617966C488.136 0.0617966 442.021 -2.80164 447.443 30.4548C447.443 30.4548 446.348 36.3339 451.541 39C451.541 39 451.623 36.5368 456.273 37.3766C457.929 37.6591 459.611 37.7423 461.285 37.6246C463.547 37.4639 465.697 36.5498 467.409 35.0205C467.409 35.0205 480.374 29.5078 485.413 7.70514C485.413 7.70514 489.144 2.94778 488.996 1.72462L481.212 5.14608C481.212 5.14608 483.874 10.9237 481.76 15.7261C481.76 15.7261 481.508 5.35464 480.013 5.58011C479.711 5.63084 475.97 7.58113 475.97 7.58113C475.97 7.58113 480.544 17.6426 477.093 24.959C477.093 24.959 478.402 12.5583 474.541 8.30826L469.063 11.6001C469.063 11.6001 474.409 21.9941 470.783 30.4773C470.783 30.4773 471.714 17.4679 467.907 12.4005L462.945 16.3856C462.945 16.3856 467.968 26.6331 464.906 33.6677C464.906 33.6677 464.506 18.5219 461.871 17.3777C461.871 17.3777 457.527 21.3234 456.865 22.9355C456.865 22.9355 460.305 30.3759 458.168 34.299C458.168 34.299 456.859 24.2093 455.786 24.153C455.786 24.153 451.458 30.8381 451.009 35.4263C451.009 35.4263 451.195 28.6116 454.739 23.5217C454.739 23.5217 450.555 24.2601 448.112 27.0502C448.112 27.0502 448.785 22.3267 455.807 21.9152C455.807 21.9152 459.384 16.8422 460.337 16.5322C460.337 16.5322 453.359 15.9347 449.125 17.8624C449.125 17.8624 452.85 13.4038 461.619 15.433L466.521 11.3126C466.521 11.3126 457.33 10.0218 453.43 11.4479C453.43 11.4479 457.916 7.50222 467.842 10.3769L473.177 7.09638C473.177 7.09638 465.338 5.36028 460.672 5.96904C460.672 5.96904 465.601 3.23525 474.743 6.20014L478.577 4.43586C478.577 4.43586 472.837 3.27471 471.155 3.0887C469.474 2.90268 469.386 2.4292 469.386 2.4292C473.023 1.80514 476.757 2.23249 480.171 3.66364C480.171 3.66364 488.278 0.586008 488.136 0.0617966Z" fill="#009688"/>
<path id="Path_90" opacity="0.1" fill-rule="evenodd" clip-rule="evenodd" d="M431.603 8.02708C431.603 8.02708 410.758 6.77667 413.199 21.2705C413.199 21.2705 412.711 23.8366 415.047 25C415.047 25 415.086 23.9127 417.192 24.2878C417.941 24.4126 418.701 24.4491 419.458 24.3965C420.482 24.3276 421.455 23.9285 422.228 23.2603C422.228 23.2603 428.098 20.8628 430.38 11.3597C430.38 11.3597 432.064 9.28292 431.998 8.75014L428.476 10.2398C428.476 10.2398 429.683 12.7623 428.734 14.8554C428.734 14.8554 428.619 10.3322 427.944 10.4409C427.807 10.4409 426.112 11.3108 426.112 11.3108C426.112 11.3108 428.186 15.6981 426.622 18.8893C426.622 18.8893 427.215 13.4854 425.465 11.6315L422.985 13.0668C422.985 13.0668 425.41 17.5954 423.764 21.2923C423.764 21.2923 424.187 15.6219 422.464 13.4147L420.22 15.1707C420.22 15.1707 422.491 19.6396 421.109 22.7003C421.109 22.7003 420.928 16.1004 419.732 15.6056C419.732 15.6056 417.768 17.3236 417.467 18.0303C417.467 18.0303 419.025 21.2923 418.059 22.9776C418.059 22.9776 417.467 18.5794 416.962 18.5631C416.962 18.5631 415.009 21.4771 414.801 23.456C414.898 21.6092 415.481 19.8196 416.49 18.2641C415.36 18.4763 414.317 19.011 413.49 19.8027C413.49 19.8027 413.797 17.7476 416.973 17.5628C416.973 17.5628 418.619 15.3556 419.025 15.2196C419.025 15.2196 415.865 14.9587 413.95 15.8013C413.95 15.8013 415.634 13.8551 419.606 14.714L421.8 12.92C421.8 12.92 417.642 12.3763 415.876 12.9798C415.876 12.9798 417.905 11.2618 422.398 12.5122L424.812 11.0824C424.812 11.0824 421.268 10.3213 419.151 10.5986C419.151 10.5986 421.383 9.40252 425.52 10.6964L427.248 9.92987C427.248 9.92987 424.647 9.41883 423.885 9.34272C423.122 9.26661 423.084 9.05459 423.084 9.05459C424.731 8.78309 426.421 8.97134 427.966 9.59824C427.966 9.59824 431.669 8.25541 431.603 8.02708Z" fill="#009688"/>
<path id="Oval_2" fill-rule="evenodd" clip-rule="evenodd" d="M504 358C516.15 358 526 356.433 526 354.5C526 352.567 516.15 351 504 351C491.85 351 482 352.567 482 354.5C482 356.433 491.85 358 504 358Z" fill="#009688"/>
<path id="Path_91" fill-rule="evenodd" clip-rule="evenodd" d="M513.787 348.718C514.814 347.934 515.561 346.875 515.928 345.682C516.208 344.481 515.66 343.06 514.43 342.594C513.055 342.101 511.585 342.997 510.472 343.899C509.36 344.801 508.08 345.834 506.626 345.64C508.15 344.342 508.837 342.39 508.438 340.496C508.374 340.111 508.2 339.748 507.934 339.448C507.169 338.682 505.788 339.007 504.871 339.61C501.964 341.529 501.153 345.236 501.137 348.566C500.846 347.365 501.092 346.112 501.086 344.895C501.081 343.679 500.717 342.274 499.605 341.629C498.919 341.283 498.147 341.113 497.369 341.136C496.066 341.089 494.607 341.215 493.718 342.111C492.6 343.223 492.897 345.089 493.858 346.306C494.82 347.522 496.29 348.304 497.643 349.148C498.725 349.753 499.648 350.579 500.343 351.565C500.427 351.703 500.494 351.849 500.544 352H508.739C510.572 351.125 512.27 350.02 513.787 348.718Z" fill="#009688"/>
</g>
<defs>
<linearGradient id="paint0_linear" x1="515.985" y1="279.029" x2="515.985" y2="56.0626" gradientUnits="userSpaceOnUse">
<stop stop-color="#808080" stop-opacity="0.25"/>
<stop offset="0.54" stop-color="#808080" stop-opacity="0.12"/>
<stop offset="1" stop-color="#808080" stop-opacity="0.1"/>
</linearGradient>
<linearGradient id="paint1_linear" x1="83.0206" y1="355.978" x2="204.996" y2="355.978" gradientUnits="userSpaceOnUse">
<stop stop-color="#808080" stop-opacity="0.25"/>
<stop offset="0.54" stop-color="#808080" stop-opacity="0.12"/>
<stop offset="1" stop-color="#808080" stop-opacity="0.1"/>
</linearGradient>
</defs>
</svg>
